<svg width="50" height="50" viewBox="0 0 50 50" fill="none" xmlns="http://www.w3.org/2000/svg">


    <g id="waveSvs">
        <svg width="52" height="5" viewBox="0 0 52 5" fill="none" xmlns="http://www.w3.org/2000/svg">
            <path d="M0 4C2.27042 4 2.92958 1 5.2 1C7.47042 1 8.12958 4 10.4 4C12.6704 4 13.3296 1 15.6 1C17.8704 1 18.5296 4 20.8 4C23.0704 4 23.7296 1 26 1C28.2704 1 28.9296 4 31.2 4C33.4704 4 34.1296 1 36.4 1C38.6704 1 39.3296 4 41.6 4C43.8704 4 44.5296 1 46.8 1C49.0704 1 49.7296 4 52 4"
                  stroke="#111111"/>
        </svg>
    </g>
    <g id="forLogoSvg">
        <g clip-path="url(#clip0_20_1493)">
            <path d="M50 24.8894C49.9972 23.7294 49.5339 22.6181 48.712 21.7996C47.89 20.9811 46.7766 20.5226 45.6167 20.5248C44.7516 20.5258 43.9063 20.7831 43.1875 21.2644L45.0542 23.129C45.4475 22.9996 45.873 23.0065 46.262 23.1487C46.6509 23.2909 46.9806 23.56 47.1977 23.9126C47.4149 24.2652 47.5069 24.6807 47.4589 25.092C47.4108 25.5033 47.2256 25.8865 46.933 26.1795C46.6405 26.4726 46.2577 26.6585 45.8465 26.7073C45.4352 26.756 45.0196 26.6648 44.6666 26.4482C44.3136 26.2317 44.0439 25.9025 43.901 25.5138C43.7582 25.1252 43.7505 24.6997 43.8792 24.3061L42.0146 22.4415C41.3736 23.4013 41.1387 24.5759 41.3613 25.7084C41.5838 26.841 42.2457 27.8393 43.2022 28.4853C44.1587 29.1312 45.3321 29.3722 46.4657 29.1555C47.5994 28.9388 48.6012 28.2821 49.2521 27.329C49.7383 26.609 49.9987 25.7603 50 24.8915L50 24.8894ZM37.2646 23.1519C38.7407 23.1549 40.1776 22.6774 41.3583 21.7915L38.9375 19.3623C38.2641 19.731 37.4875 19.8662 36.7291 19.7467C35.9707 19.6272 35.2732 19.2598 34.7458 18.7019L31.5271 20.0186C32.146 20.978 32.9952 21.7672 33.9974 22.3142C34.9996 22.8611 36.1228 23.1505 37.2646 23.1519ZM33.7937 16.3811L33.7937 16.3186C33.8239 15.4172 34.2028 14.5627 34.8507 13.9353C35.4987 13.3079 36.3649 12.9566 37.2668 12.9555C38.1687 12.9545 39.0358 13.3037 39.6852 13.9295C40.3346 14.5553 40.7156 15.4089 40.7479 16.3102C40.7488 16.9914 40.5496 17.6579 40.175 18.2269L42.575 20.6248C43.6987 19.2157 44.2201 17.4197 44.0259 15.6279C43.8316 13.8361 42.9373 12.1936 41.5377 11.058C40.1381 9.92247 38.3466 9.38584 36.5532 9.56496C34.7598 9.74408 33.1098 10.6245 31.9625 12.0144C31.3249 12.7999 30.8697 13.7172 30.6298 14.7001C30.3898 15.6829 30.3711 16.7068 30.575 17.6977L33.7917 16.3811L33.7937 16.3811ZM31.0104 24.9811C31.0104 23.4644 30.7896 21.9561 30.3542 20.5019L25.6625 22.4227C26.3159 25.006 25.9587 27.7412 24.6637 30.07C23.3687 32.3988 21.2337 34.1454 18.6945 34.9533C16.1553 35.7613 13.4035 35.5695 11.001 34.4173C8.59837 33.265 6.72621 31.2391 5.76672 28.7533C4.80722 26.2674 4.83276 23.509 5.83813 21.0414C6.84349 18.5737 8.75285 16.5829 11.1764 15.4753C13.5999 14.3677 16.3548 14.227 18.8785 15.0818C21.4023 15.9366 23.5046 17.7225 24.7562 20.0748L29.4312 18.179C27.6226 14.4866 24.4213 11.6639 20.5316 10.3316C16.6418 8.99936 12.3822 9.26669 8.68958 11.0748C6.86104 11.9704 5.22472 13.2173 3.8781 14.7445C2.53147 16.2717 1.49884 18.0491 0.839153 19.9753C0.17947 21.9016 -0.0943534 23.9389 0.0333359 25.971C0.161021 28.003 0.687713 29.99 1.58333 31.8186L1.58333 31.8206C2.47852 33.6495 3.72521 35.2842 5.25221 36.6312C6.7792 37.9783 8.55659 39.0114 10.4829 39.6714C12.4091 40.3315 14.4466 40.6057 16.4788 40.4783C18.5111 40.3509 20.4983 39.8245 22.3271 38.929C24.9337 37.653 27.1298 35.671 28.6657 33.2086C30.2015 30.7461 31.0153 27.902 31.0146 24.9998L31.0146 24.9831L31.0104 24.9811Z"
                  fill="#5C5C5D"/>
        </g>
        <defs>
            <clipPath id="clip0_20_1493">
                <rect width="50" height="50" fill="white" transform="translate(50) rotate(90)"/>
            </clipPath>
        </defs>
    </g>

    <g id="htmlSvg">
        <path id="Vector" d="M22.1325 102.004L13.7063 7.5H106.294L97.8563 101.989L59.9438 112.5L22.1325 102.004Z"
              fill="#E44F26"/>
        <path id="Vector_2" d="M60 104.468L90.6375 95.9738L97.845 15.2288H60V104.468Z" fill="#F1662A"/>
        <path id="Vector_3"
              d="M60 50.2762H44.6625L43.605 38.4074H60V26.8162H30.9375L31.215 29.9287L34.0613 61.8674H60V50.2762V50.2762ZM60 80.3774L59.9475 80.3924L47.04 76.9087L46.215 67.6649H34.5787L36.2025 85.8599L59.9475 92.4524L60 92.4374V80.3774Z"
              fill="#EBEBEB"/>
        <path id="Vector_4"
              d="M59.9587 50.2762V61.8674H74.2312L72.8887 76.9012L59.9587 80.3887V92.4487L83.7225 85.8599L83.895 83.9024L86.6175 53.3887L86.9025 50.2762H59.9587V50.2762ZM59.9587 26.8162V38.4074H87.9562L88.1887 35.8049L88.7175 29.9287L88.995 26.8162H59.9587V26.8162Z"
              fill="white"/>
    </g>
    <g id="cssSvg">
        <path d="M22.1325 101.154L13.71 7.4375H106.29L97.8562 101.139L59.9437 111.562L22.1325 101.154Z" fill="#1572B6"/>
        <path d="M60 103.597L90.6375 95.1739L97.845 15.1018H60V103.597Z" fill="#33A9DC"/>
        <path d="M60 49.054H75.3375L76.395 37.2842H60V25.7896H89.0625L88.785 28.8724L85.9387 60.5487H60V49.054V49.054Z"
              fill="white"/>
        <path d="M60.0711 78.9045L60.0186 78.9193L47.1112 75.4609L46.2862 66.2942H34.6499L36.2737 84.3413L60.0149 90.8788L60.0711 90.864V78.9045V78.9045Z"
              fill="#EBEBEB"/>
        <path d="M74.3513 60.0615L72.9563 75.4534L60.03 78.9119V90.8714L83.79 84.3412L83.9663 82.4001L85.98 60.0615H74.3513V60.0615Z"
              fill="white"/>
        <path d="M60.0411 25.7896V37.2842H32.0436L31.8111 34.6997L31.2824 28.8724L31.0049 25.7896H60.0411V25.7896ZM59.9999 49.054V60.5487H47.2536L47.0211 57.9642L46.4961 52.1369L46.2186 49.054H59.9999V49.054Z"
              fill="#EBEBEB"/>
    </g>
    <g id="jsSvg">
        <path d="M7.5 7.5H112.5V112.5H7.5V7.5Z" fill="#F5DE19"/>
        <path d="M78.0338 89.5313C78.9284 91.3485 80.3183 92.8759 82.0434 93.9375C83.7684 94.9991 85.7584 95.5515 87.7838 95.5313C91.8713 95.5313 94.485 93.4875 94.485 90.6562C94.485 87.2812 91.8 86.0738 87.3 84.105L84.8325 83.0475C77.7075 80.0138 72.9825 76.215 72.9825 68.1825C72.9825 60.7838 78.6075 55.1475 87.4313 55.1475C90.2877 54.9412 93.1416 55.5805 95.637 56.9856C98.1324 58.3907 100.159 60.4994 101.464 63.0488L93.75 67.98C93.2476 66.716 92.3728 65.6345 91.2416 64.879C90.1105 64.1236 88.7764 63.7298 87.4163 63.75C86.8229 63.6906 86.2236 63.7555 85.6567 63.9404C85.0897 64.1254 84.5675 64.4265 84.1234 64.8244C83.6792 65.2224 83.3228 65.7085 83.0769 66.2518C82.831 66.7951 82.7009 67.3837 82.695 67.98C82.695 70.9388 84.5288 72.1388 88.7625 73.98L91.23 75.0375C99.615 78.6338 104.355 82.2975 104.355 90.5363C104.355 99.42 97.3763 104.287 88.005 104.287C84.3537 104.52 80.713 103.691 77.5223 101.901C74.3317 100.11 71.7274 97.4342 70.0238 94.1962L78.0338 89.5313ZM43.1775 90.3863C44.7263 93.135 46.1363 95.46 49.5263 95.46C52.7663 95.46 54.8138 94.1925 54.8138 89.2612V55.71H64.68V89.3925C64.68 99.6075 58.68 104.258 49.9463 104.258C46.8591 104.426 43.7931 103.657 41.1513 102.051C38.5096 100.444 36.4157 98.0761 35.145 95.2575L43.1775 90.3863Z"
              fill="black"/>

    </g>
    <g id="reactSvg">
        <g id="logos:react" clip-path="url(#clip0_16_527)">
            <path id="Vector"
                  d="M92.9055 32.7027C91.703 32.2886 90.4903 31.905 89.2686 31.5522C89.4738 30.7106 89.6627 29.8791 89.8304 29.0622C92.5837 15.6483 90.7838 4.84172 84.6359 1.28369C78.7415 -2.12728 69.1015 1.42943 59.3658 9.93336C58.4063 10.773 57.4681 11.6368 56.552 12.5239C55.9388 11.934 55.3148 11.3555 54.6802 10.7888C44.4766 1.6961 34.2492 -2.13614 28.108 1.43209C22.2188 4.85368 20.4749 15.0126 22.9537 27.7253C23.2003 28.9844 23.4787 30.2369 23.7887 31.4818C22.341 31.8947 20.9441 32.3341 19.6072 32.8019C7.64431 36.9881 0.00463867 43.5482 0.00463867 50.3528C0.00463867 57.3808 8.20617 64.4299 20.666 68.7043C21.6762 69.0494 22.6947 69.3692 23.7208 69.6633C23.3875 71.0041 23.0917 72.354 22.8336 73.7113C20.4705 86.2034 22.3159 96.1222 28.1892 99.5221C34.2554 103.033 44.4369 99.4247 54.3505 90.7267C55.1544 90.0196 55.9406 89.2924 56.7083 88.5459C57.7003 89.5065 58.7188 90.4392 59.7626 91.3429C69.3659 99.6364 78.85 102.985 84.7176 99.5762C90.7781 96.0549 92.7479 85.3994 90.1906 72.4355C89.9891 71.4199 89.7632 70.4093 89.5131 69.4046C90.2281 69.192 90.9299 68.9732 91.614 68.7455C104.567 64.4384 112.995 57.4747 112.995 50.3528C112.995 43.5234 105.109 36.919 92.9055 32.7027V32.7027ZM90.0961 64.1473C89.4782 64.3524 88.8444 64.5504 88.1982 64.7431C86.7682 60.1995 84.8385 55.3683 82.4768 50.3763C84.7304 45.5035 86.5859 40.7339 87.9758 36.2199C89.1317 36.5557 90.2533 36.9097 91.3346 37.2831C101.791 40.8961 108.168 46.2371 108.168 50.3528C108.168 54.7366 101.28 60.4276 90.0961 64.1473V64.1473ZM85.4556 73.3764C86.5864 79.1086 86.7475 84.2915 85.9985 88.3435C85.3258 91.9843 83.9726 94.4114 82.2989 95.3838C78.7384 97.4525 71.1234 94.7636 62.9108 87.6706C61.94 86.8304 60.9926 85.9633 60.0698 85.0703C63.2538 81.5756 66.4356 77.513 69.5411 73.0008C75.0035 72.5144 80.164 71.7188 84.8438 70.633C85.0693 71.5425 85.2732 72.4572 85.4556 73.3764V73.3764ZM38.5256 95.0263C35.0467 96.2591 32.2758 96.2946 30.6008 95.3253C27.0368 93.2623 25.5551 85.298 27.5761 74.615C27.8164 73.3526 28.0914 72.0972 28.401 70.8501C33.0292 71.8778 38.1522 72.6167 43.6274 73.0623C46.7541 77.4776 50.0277 81.5357 53.327 85.0893C52.6258 85.7702 51.9081 86.4337 51.1744 87.0792C46.7903 90.9252 42.3973 93.6539 38.5256 95.0263V95.0263ZM22.2276 64.1203C16.718 62.2301 12.1679 59.7738 9.04919 57.0933C6.24649 54.6848 4.8319 52.2931 4.8319 50.3528C4.8319 46.2234 10.9656 40.9563 21.1961 37.3766C22.4377 36.9424 23.7371 36.5327 25.0855 36.1482C26.4996 40.7641 28.3543 45.5903 30.5924 50.4707C28.3251 55.4232 26.444 60.3266 25.0162 64.997C24.0796 64.7277 23.1498 64.4354 22.2276 64.1203V64.1203ZM27.6909 26.7946C25.5674 15.903 26.9776 7.687 30.5267 5.62491C34.3066 3.42861 42.6652 6.56005 51.4754 14.4115C52.0499 14.9246 52.6151 15.4482 53.1707 15.9818C49.8878 19.5199 46.6442 23.548 43.5453 27.9371C38.2312 28.4314 33.1444 29.2252 28.4677 30.2888C28.1795 29.131 27.9205 27.966 27.6909 26.795V26.7946ZM76.43 38.8738C75.3254 36.9588 74.1797 35.0679 72.9939 33.2023C76.599 33.6599 80.0532 34.2673 83.2968 35.0097C82.3232 38.1425 81.1094 41.4175 79.6807 44.7753C78.6364 42.7866 77.5526 40.8191 76.43 38.8738V38.8738ZM56.5542 19.4442C58.7805 21.8651 61.0103 24.5677 63.2035 27.5003C58.7545 27.2894 54.298 27.2885 49.849 27.4976C52.0443 24.5921 54.2931 21.893 56.5542 19.4442ZM36.5509 38.9071C35.4424 40.8366 34.3788 42.7919 33.3612 44.7713C31.9558 41.4254 30.7531 38.1354 29.7711 34.9583C32.9948 34.2345 36.4326 33.6427 40.0148 33.1935C38.8158 35.0704 37.6608 36.9753 36.5509 38.9066V38.9071ZM40.1176 67.8569C36.4168 67.4422 32.9273 66.881 29.7044 66.1766C30.7019 62.9429 31.9311 59.5828 33.3669 56.1652C34.3886 58.1461 35.4566 60.1025 36.5699 62.033C37.7148 64.0175 38.9003 65.9613 40.1176 67.8569ZM56.6875 81.6026C54.3995 79.1255 52.1176 76.3847 49.8891 73.4371C52.0527 73.5222 54.2582 73.5656 56.5 73.5656C58.803 73.5656 61.0796 73.5137 63.3204 73.4136C61.1202 76.4144 58.8988 79.1591 56.6875 81.6026ZM79.7262 55.9907C81.2365 59.4459 82.5094 62.7883 83.5202 65.9667C80.2443 66.7171 76.7072 67.3213 72.9803 67.77C74.1745 65.8699 75.331 63.9461 76.449 61.9998C77.5857 60.0214 78.6783 58.0179 79.7262 55.9907V55.9907ZM72.2679 59.5793C70.5563 62.5634 68.7486 65.4908 66.8474 68.357C63.4037 68.6018 59.9523 68.7234 56.5 68.7216C52.9836 68.7216 49.5634 68.6117 46.2699 68.3973C44.3191 65.5378 42.4769 62.6052 40.747 59.6059H40.7475C39.0258 56.6224 37.4176 53.5744 35.9264 50.4685C37.4138 47.3618 39.0171 44.3124 40.7329 41.3266L40.7325 41.3271C42.4476 38.3406 44.2752 35.4206 46.2112 32.5733C49.5713 32.3181 53.0171 32.1853 56.4995 32.1853H56.5C59.9983 32.1853 63.4484 32.3195 66.8077 32.5764C68.7242 35.4194 70.5401 38.3294 72.252 41.3009C73.9735 44.2801 75.598 47.3146 77.123 50.3998C75.6137 53.5165 73.9943 56.5783 72.2679 59.5793V59.5793ZM82.2252 5.4805C86.0086 7.67061 87.4801 16.5023 85.1029 28.0841C84.9511 28.823 84.7807 29.5756 84.5953 30.3389C79.9071 29.2527 74.8168 28.4452 69.4873 27.9433C66.3827 23.5059 63.1655 19.4717 59.936 15.9792C60.7824 15.1603 61.6489 14.3627 62.5348 13.5871C70.8767 6.30135 78.673 3.42462 82.2252 5.4805V5.4805ZM56.5 40.2263C62.0723 40.2263 66.5897 44.7602 66.5897 50.3528C66.5897 55.9455 62.0723 60.4794 56.5 60.4794C50.9277 60.4794 46.4102 55.9455 46.4102 50.3528C46.4102 44.7602 50.9277 40.2263 56.5 40.2263V40.2263Z"
                  fill="#00D8FF"/>
        </g>
        <defs>
            <clipPath id="clip0_16_527">
                <rect width="113" height="101" fill="white"/>
            </clipPath>
        </defs>
    </g>
    <g id="tsSvg">
        <path id="Vector" d="M17.8879 39.6562H96.5338V101.815H17.8879V39.6562Z" fill="white"/>
        <path id="Vector_2"
              d="M1.18359 53.9238V106.658H99.8164V1.18945H1.18359V53.9238ZM80.6659 49.7051C83.0282 50.2913 85.1753 51.6125 86.8363 53.502C87.7507 54.5199 88.5457 55.6533 89.2035 56.877C89.2035 57.012 84.9426 60.0916 82.3466 61.8129C82.2519 61.8804 81.8731 61.4416 81.4549 60.7751C80.981 59.9007 80.3077 59.1689 79.4977 58.6481C78.6877 58.1272 77.7676 57.8343 76.8231 57.7966C73.8326 57.5773 71.9073 59.2563 71.923 62.0154C71.8983 62.7023 72.0454 63.3839 72.3491 63.9898C73.0041 65.4494 74.2271 66.3185 78.062 68.0904C85.1241 71.3388 88.1462 73.4819 90.0241 76.5279C92.123 79.9029 92.5886 85.3535 91.1683 89.3866C89.5902 93.7741 85.7237 96.7526 80.2555 97.7398C77.758 98.0456 75.2346 98.0173 72.7437 97.6554C68.9259 96.9825 65.4092 95.0224 62.7068 92.0613C61.7994 90.9898 60.0319 88.197 60.1423 87.9945C60.4304 87.7658 60.7337 87.5599 61.0498 87.3785L64.7031 85.2185L67.5359 83.4635L68.1277 84.4001C69.1264 85.9278 70.3974 87.2295 71.8678 88.2307C75.0241 90.0026 79.3323 89.7579 81.4628 87.7076C82.1781 86.9563 82.6244 85.9605 82.7238 84.8936C82.8233 83.8268 82.5698 82.7564 82.0073 81.8688C81.2182 80.696 79.6401 79.7088 75.2292 77.6501C70.1398 75.3044 67.9462 73.8532 65.942 71.5413C64.6908 70.0157 63.767 68.2158 63.2355 66.2679C62.839 64.0425 62.7804 61.7633 63.0619 59.5179C64.1113 54.2613 67.7962 50.591 73.1777 49.5026C75.6698 49.1728 78.1943 49.2468 80.6659 49.722V49.7051ZM57.5148 54.1263V58.4463H44.7083V97.4529H35.6262V58.4379H22.7881V54.2191C22.7481 52.7643 22.7797 51.3082 22.8828 49.857C22.9459 49.781 30.7734 49.781 40.2422 49.781H57.4674L57.5148 54.1263Z"
              fill="#007ACC"/>
    </g>
    <g id="figmaSvg">
        <g clip-path="url(#clip0_18_554)">
            <path d="M64 384C99.328 384 128 355.328 128 320V256H64C28.672 256 0 284.672 0 320C0 355.328 28.672 384 64 384Z"
                  fill="#0ACF83"/>
            <path d="M0 192C0 156.672 28.672 128 64 128H128V256H64C28.672 256 0 227.328 0 192Z" fill="#A259FF"/>
            <path d="M0 64C0 28.672 28.672 0 64 0H128V128H64C28.672 128 0 99.328 0 64Z" fill="#F24E1E"/>
            <path d="M128 0H192C227.328 0 256 28.672 256 64C256 99.328 227.328 128 192 128H128V0Z" fill="#FF7262"/>
            <path d="M256 192C256 227.328 227.328 256 192 256C156.672 256 128 227.328 128 192C128 156.672 156.672 128 192 128C227.328 128 256 156.672 256 192Z"
                  fill="#1ABCFE"/>
        </g>
        <defs>
            <clipPath id="clip0_18_554">
                <rect width="256" height="384" fill="white"/>
            </clipPath>
        </defs>
    </g>
</svg>
