<svg width="50" height="50" viewBox="0 0 50 50" fill="none" xmlns="http://www.w3.org/2000/svg">

<g id="globus">
    <svg width="200" height="200" viewBox="0 0 200 200" fill="none" xmlns="http://www.w3.org/2000/svg">
        <path d="M100 0C80.2219 0 60.8879 5.8649 44.443 16.853C27.9981 27.8412 15.1809 43.459 7.61209 61.7317C0.0433269 80.0043 -1.937 100.111 1.92152 119.509C5.78004 138.907 15.3041 156.725 29.2894 170.711C43.2746 184.696 61.0929 194.22 80.491 198.079C99.8891 201.937 119.996 199.957 138.268 192.388C156.541 184.819 172.159 172.002 183.147 155.557C194.135 139.112 200 119.778 200 100C199.971 73.4873 189.426 48.0688 170.679 29.3215C151.931 10.5742 126.513 0.029116 100 0ZM187.64 128H141.49C144.837 109.483 144.837 90.5167 141.49 72H187.64C193.453 90.2141 193.453 109.786 187.64 128ZM100 192C99.4766 192 98.9589 191.89 98.4802 191.678C98.0015 191.467 97.5723 191.157 97.22 190.77C83.57 176.07 73.7 157.05 68.41 136H131.59C126.3 157.05 116.43 176.07 102.78 190.77C102.428 191.157 101.999 191.467 101.52 191.678C101.041 191.89 100.524 192 100 192ZM66.65 128C63.1167 109.501 63.1167 90.4995 66.65 72H133.35C136.883 90.4995 136.883 109.501 133.35 128H66.65ZM100 8C100.524 8.00021 101.041 8.10972 101.52 8.32152C101.999 8.53333 102.428 8.84276 102.78 9.23C116.43 23.93 126.3 43 131.59 64H68.41C73.7 43 83.57 23.93 97.22 9.23C97.5723 8.84276 98.0015 8.53333 98.4802 8.32152C98.9589 8.10972 99.4766 8.00021 100 8ZM184.66 64H139.81C134.9 43.27 125.81 24.28 113.15 8.94C128.786 11.2284 143.573 17.493 156.094 27.1337C168.615 36.7745 178.451 49.4685 184.66 64ZM86.85 8.94C74.22 24.28 65.1 43.27 60.19 64H15.34C21.5493 49.4685 31.3854 36.7745 43.9065 27.1337C56.4275 17.493 71.2141 11.2284 86.85 8.94ZM12.36 72H58.51C55.1634 90.5167 55.1634 109.483 58.51 128H12.36C6.54683 109.786 6.54683 90.2141 12.36 72ZM15.36 136H60.19C65.1 156.73 74.19 175.72 86.85 191.06C71.2141 188.772 56.4275 182.507 43.9065 172.866C31.3854 163.226 21.5493 150.532 15.34 136H15.36ZM113.17 191.06C125.8 175.72 134.92 156.73 139.83 136H184.68C178.469 150.534 168.63 163.23 156.105 172.871C143.58 182.512 128.79 188.775 113.15 191.06H113.17Z" fill="black"/>
    </svg>
</g>

<g id="backTop">
    <svg xmlns="http://www.w3.org/2000/svg" width="36" height="36" viewBox="0 0 36 36" fill="none">
        <path d="M1 35V1H35" stroke="black" stroke-width="1.41667" stroke-linecap="round" stroke-linejoin="round"/>
    </svg>
</g>

<g id="telegram">
    <svg width="16" height="16" viewBox="0 0 16 16" fill="none" xmlns="http://www.w3.org/2000/svg">
        <path d="M8 0C3.584 0 0 3.584 0 8C0 12.416 3.584 16 8 16C12.416 16 16 12.416 16 8C16 3.584 12.416 0 8 0ZM11.712 5.44C11.592 6.704 11.072 9.776 10.808 11.192C10.696 11.792 10.472 11.992 10.264 12.016C9.8 12.056 9.448 11.712 9 11.416C8.296 10.952 7.896 10.664 7.216 10.216C6.424 9.696 6.936 9.408 7.392 8.944C7.512 8.824 9.56 6.96 9.6 6.792C9.60556 6.76655 9.60482 6.74014 9.59785 6.71504C9.59088 6.68995 9.57788 6.66693 9.56 6.648C9.512 6.608 9.448 6.624 9.392 6.632C9.32 6.648 8.2 7.392 6.016 8.864C5.696 9.08 5.408 9.192 5.152 9.184C4.864 9.176 4.32 9.024 3.912 8.888C3.408 8.728 3.016 8.64 3.048 8.36C3.064 8.216 3.264 8.072 3.64 7.92C5.976 6.904 7.528 6.232 8.304 5.912C10.528 4.984 10.984 4.824 11.288 4.824C11.352 4.824 11.504 4.84 11.6 4.92C11.68 4.984 11.704 5.072 11.712 5.136C11.704 5.184 11.72 5.328 11.712 5.44Z" fill="#8C8C8C"/>
    </svg>
</g>

    <g id="instagram">
        <svg width="16" height="16" viewBox="0 0 16 16" fill="none" xmlns="http://www.w3.org/2000/svg">
            <path d="M7.99249 4.38865L7.99372 4.38864C8.46714 4.38749 8.93614 4.47988 9.37375 4.66052C9.81137 4.84116 10.209 5.10648 10.5437 5.44124C10.8785 5.77601 11.1438 6.17362 11.3245 6.61123C11.5051 7.04885 11.5975 7.51784 11.5963 7.99127V7.99249C11.5963 8.70527 11.385 9.40203 10.989 9.99468C10.593 10.5873 10.0301 11.0492 9.37162 11.322C8.71311 11.5948 7.98849 11.6661 7.28942 11.5271C6.59034 11.388 5.9482 11.0448 5.44419 10.5408C4.94018 10.0368 4.59695 9.39465 4.45789 8.69557C4.31884 7.99649 4.39021 7.27188 4.66297 6.61336C4.93574 5.95484 5.39765 5.392 5.9903 4.996C6.58295 4.60001 7.27972 4.38865 7.99249 4.38865ZM15.4399 4.71942L15.4408 4.71943C15.4998 6.01269 15.4997 9.989 15.4405 11.2725L15.4397 11.2899L15.4401 11.3073C15.466 12.4152 15.0545 13.4885 14.295 14.295C13.4885 15.0545 12.4152 15.466 11.3073 15.4401L11.2863 15.4396L11.2653 15.4409C9.96425 15.5197 6.02074 15.5197 4.71964 15.4409L4.69912 15.4396L4.67857 15.4401C3.57061 15.4641 2.49759 15.0527 1.68965 14.2947C0.930368 13.4882 0.518988 12.415 0.544905 11.3073L0.545312 11.2899L0.544511 11.2725C0.485163 9.98668 0.485163 5.99831 0.544511 4.71245L0.545312 4.69508L0.544905 4.6777C0.518988 3.56995 0.930367 2.49676 1.68965 1.69026C2.49759 0.932253 3.57061 0.520934 4.67857 0.544925L4.69552 0.545292L4.71245 0.544511C5.99831 0.485163 9.98668 0.485163 11.2725 0.544511L11.2883 0.545237L11.304 0.544971C12.4165 0.526205 13.491 0.948091 14.2935 1.71833C15.0498 2.5206 15.4615 3.58724 15.4405 4.68938L15.4399 4.6894V4.71942ZM14.7034 12.9105L14.7383 12.822V12.8075C14.958 12.1861 15.03 11.2612 15.0559 10.4112C15.0758 9.75811 15.0686 9.08922 15.063 8.55616C15.0607 8.34343 15.0586 8.15233 15.0586 7.99249C15.0586 7.83259 15.0607 7.64159 15.063 7.42905C15.0687 6.89684 15.0758 6.2296 15.0559 5.57752C15.0287 4.6834 14.9502 3.70729 14.7032 3.08388C14.5421 2.67616 14.2991 2.30584 13.9891 1.99586C13.679 1.68573 13.3085 1.44261 12.9005 1.28156L12.8594 1.26532L12.816 1.25655C11.2295 0.935807 9.60789 0.824463 7.99255 0.925332C6.38041 0.824285 4.76193 0.935652 3.17873 1.25661L3.13708 1.26505L3.09745 1.2804C2.6853 1.44007 2.31133 1.68462 1.99981 1.99819C1.6893 2.31074 1.44776 2.6849 1.29076 3.09651C1.04462 3.7153 0.963761 4.68947 0.934119 5.58241C0.911835 6.25373 0.918054 6.93933 0.922952 7.47928C0.924732 7.67548 0.926337 7.85244 0.926337 8.0025C0.926337 8.15263 0.92473 8.32952 0.92295 8.52555C0.918052 9.06467 0.911839 9.74858 0.93412 10.4189C0.963853 11.3133 1.04513 12.2885 1.29181 12.9111C1.45285 13.3188 1.69589 13.6892 2.00587 13.9991C2.316 14.3093 2.68653 14.5524 3.09448 14.7134L3.13551 14.7296L3.17873 14.7384C4.76193 15.0593 6.38041 15.1707 7.99255 15.0697C9.60789 15.1705 11.2295 15.0592 12.816 14.7384L12.8594 14.7297L12.9005 14.7134C13.3085 14.5524 13.679 14.3093 13.9891 13.9991C14.2993 13.689 14.5424 13.3185 14.7034 12.9105ZM6.22994 10.6303C6.75166 10.9789 7.36503 11.165 7.99249 11.165C8.83389 11.165 9.64083 10.8308 10.2358 10.2358C10.8308 9.64083 11.165 8.83389 11.165 7.99249C11.165 7.36503 10.9789 6.75166 10.6303 6.22994C10.2817 5.70823 9.78626 5.3016 9.20656 5.06148C8.62686 4.82136 7.98897 4.75853 7.37357 4.88095C6.75816 5.00336 6.19288 5.30551 5.74919 5.74919C5.30551 6.19288 5.00336 6.75816 4.88095 7.37357C4.75853 7.98897 4.82136 8.62686 5.06148 9.20656C5.3016 9.78626 5.70823 10.2817 6.22994 10.6303ZM12.7274 3.71849C12.7274 3.81756 12.698 3.91441 12.643 3.99679C12.5879 4.07917 12.5097 4.14338 12.4182 4.18129C12.3266 4.21921 12.2259 4.22913 12.1287 4.2098C12.0316 4.19047 11.9423 4.14276 11.8722 4.0727C11.8022 4.00265 11.7545 3.91339 11.7351 3.81621C11.7158 3.71904 11.7257 3.61832 11.7637 3.52679C11.8016 3.43525 11.8658 3.35701 11.9482 3.30197C12.0305 3.24693 12.1274 3.21755 12.2265 3.21755C12.3593 3.21755 12.4867 3.27032 12.5807 3.36427C12.6746 3.45821 12.7274 3.58563 12.7274 3.71849Z" fill="black" stroke="#8C8C8C"/>
        </svg>
    </g>

    <g id="github">
        <svg width="17" height="16" viewBox="0 0 17 16" fill="none" xmlns="http://www.w3.org/2000/svg">
            <path fill-rule="evenodd" clip-rule="evenodd" d="M8.20168 0C3.6732 0 0 3.67245 0 8.20243C0 11.8264 2.35037 14.9008 5.60972 15.985C6.01984 16.0611 6.16897 15.8076 6.16897 15.5898C6.16897 15.396 6.16226 14.88 6.15853 14.1954C3.87677 14.6906 3.39506 13.0956 3.39506 13.0956C3.02222 12.1485 2.48459 11.895 2.48459 11.895C1.73966 11.3872 2.54052 11.3969 2.54052 11.3969C3.36449 11.4551 3.79698 12.2425 3.79698 12.2425C4.52849 13.4952 5.71709 13.1336 6.18463 12.924C6.2592 12.3946 6.47097 12.033 6.70511 11.8279C4.88417 11.6206 2.96928 10.9167 2.96928 7.77367C2.96928 6.87885 3.28843 6.14586 3.81338 5.57243C3.72838 5.36513 3.44726 4.53072 3.89392 3.40252C3.89392 3.40252 4.58217 3.18105 6.14958 4.24289C6.81869 4.06073 7.50897 3.96796 8.20243 3.96699C8.89616 3.96749 9.58675 4.06027 10.256 4.24289C11.8219 3.18105 12.5094 3.40177 12.5094 3.40177C12.9569 4.53072 12.6757 5.36513 12.5915 5.57243C13.1172 6.14586 13.4341 6.87811 13.4341 7.77367C13.4341 10.9249 11.5162 11.6184 9.68931 11.8212C9.98385 12.0747 10.2463 12.5743 10.2463 13.3401C10.2463 14.4363 10.2359 15.3214 10.2359 15.5898C10.2359 15.8098 10.3843 16.0648 10.7996 15.985C14.0567 14.8978 16.4049 11.8257 16.4049 8.20243C16.4049 3.67245 12.7317 0 8.20168 0Z" fill="#8C8C8C"/>
        </svg>
    </g>

    <g id="behance">
        <svg width="16" height="16" viewBox="0 0 16 16" fill="none" xmlns="http://www.w3.org/2000/svg">
            <path d="M12 7.63077C12.1231 7.81538 12.2462 8 12.3077 8.30769H10.3385C10.3385 8.24615 10.3385 8.12308 10.4 8C10.4615 7.87692 10.4615 7.81538 10.5846 7.69231C10.6462 7.56923 10.7692 7.50769 10.8923 7.44615C11.0154 7.38462 11.2 7.32308 11.3846 7.32308C11.6308 7.38462 11.8769 7.44615 12 7.63077ZM6.33846 7.2C6.46154 7.07692 6.58462 6.89231 6.58462 6.64615C6.58462 6.52308 6.58462 6.4 6.52308 6.27692C6.46154 6.21538 6.4 6.09231 6.33846 6.09231C6.27692 6.03077 6.15385 6.03077 6.03077 5.96923H4.43077V7.38462H5.78462C5.96923 7.38462 6.15385 7.32308 6.33846 7.2ZM5.84615 8.24615H4.43077V9.90769H5.84615C5.96923 9.90769 6.09231 9.90769 6.21539 9.84615C6.33846 9.84615 6.46154 9.78462 6.52308 9.72308C6.58462 9.66154 6.70769 9.6 6.76923 9.47692C6.83077 9.35385 6.83077 9.23077 6.83077 9.10769C6.83077 8.8 6.76923 8.55385 6.58462 8.43077C6.4 8.30769 6.15385 8.24615 5.84615 8.24615ZM16 3.01538V12.9846C16 14.6462 14.6462 16 12.9846 16H3.01538C1.35385 16 0 14.6462 0 12.9846V3.01538C0 1.35385 1.35385 0 3.01538 0H12.9846C14.6462 0 16 1.35385 16 3.01538ZM10.0923 5.90769H12.5538V5.29231H10.0923V5.90769ZM8.12308 9.23077C8.12308 8.86154 8.06154 8.55385 7.87692 8.24615C7.69231 8 7.44615 7.81538 7.07692 7.69231C7.32308 7.56923 7.56923 7.38462 7.69231 7.2C7.81538 7.01538 7.87692 6.76923 7.87692 6.46154C7.87692 6.15385 7.81539 5.96923 7.75385 5.72308C7.63077 5.53846 7.50769 5.35385 7.38462 5.29231C7.2 5.16923 7.01538 5.10769 6.76923 5.04615C6.46154 4.92308 6.21539 4.92308 5.90769 4.92308H3.07692V10.9538H6.03077C6.27692 10.9538 6.58462 10.8923 6.83077 10.8308C7.07692 10.7692 7.32308 10.6462 7.50769 10.5231C7.69231 10.4 7.87692 10.2154 8 9.96923C8.06154 9.78462 8.12308 9.53846 8.12308 9.23077ZM10.3385 9.04615H13.4769C13.4769 8.67692 13.4769 8.36923 13.4154 8.06154C13.3538 7.75385 13.2308 7.44615 13.0462 7.26154C12.8615 7.01538 12.6154 6.83077 12.3692 6.70769C12.0615 6.58462 11.7538 6.46154 11.3846 6.46154C11.0769 6.46154 10.7692 6.52308 10.4615 6.64615C10.2154 6.76923 9.96923 6.95385 9.72308 7.13846C9.53846 7.32308 9.35385 7.56923 9.29231 7.87692C9.16923 8.18462 9.10769 8.49231 9.10769 8.8C9.10769 9.10769 9.16923 9.47692 9.29231 9.72308C9.41539 10.0308 9.53846 10.2769 9.72308 10.4615C9.90769 10.6462 10.1538 10.8308 10.4 10.9538C10.7077 11.0769 11.0154 11.1385 11.3231 11.1385C11.8154 11.1385 12.2462 11.0154 12.6154 10.7692C12.9846 10.5231 13.2308 10.1538 13.4154 9.66154H12.3692C12.3077 9.78462 12.2462 9.90769 12.0615 10.0308C11.8769 10.1538 11.6923 10.2154 11.4462 10.2154C11.1385 10.2154 10.8308 10.1538 10.6462 9.96923C10.4615 9.72308 10.3385 9.41538 10.3385 9.04615Z" fill="#8C8C8C"/>
        </svg>
    </g>

    <g id="html">
        <svg width="48" height="38" viewBox="0 0 48 38" fill="none" xmlns="http://www.w3.org/2000/svg">
            <path fill-rule="evenodd" clip-rule="evenodd" d="M17.3125 36.0645L26.2623 0.6875L30.4375 1.87241L21.4878 37.3125L17.3125 36.0645Z" fill="#7572D5"/>
            <path fill-rule="evenodd" clip-rule="evenodd" d="M12.5025 6.6875L15.5625 9.92778L6.995 19.0001L15.5625 28.0721L12.5025 31.3125L0.875 19.0001L12.5025 6.6875Z" fill="#7572D5"/>
            <path fill-rule="evenodd" clip-rule="evenodd" d="M35.4976 6.6875L32.4375 9.92778L41.0051 19.0001L32.4375 28.0721L35.4976 31.3125L47.125 19.0001L35.4976 6.6875Z" fill="#7572D5"/>
        </svg>
    </g>

    <g id="css">
        <svg width="41" height="46" viewBox="0 0 41 46" fill="none" xmlns="http://www.w3.org/2000/svg">
            <path d="M33.0509 8.84383L7.94614 8.83783L8.3516 13.7548L27.6382 13.7578L27.152 18.8503H14.5036L14.9608 23.6743H26.7359L26.0393 30.2808L20.497 31.7887L14.8663 30.2703L14.5081 26.3136H9.53596L10.0877 33.5412L20.497 36.7342L30.731 33.8653L33.0494 8.84533L33.0509 8.84383ZM0.498535 0.568848H40.4985L36.8601 41L20.4543 45.5688L4.14003 40.997L0.498535 0.568848Z" fill="#7572D5"/>
        </svg>
    </g>

    <g id="reaact">
        <svg width="50" height="50" viewBox="0 0 50 50" fill="none" xmlns="http://www.w3.org/2000/svg">
            <path d="M47.8125 25C47.8125 22.0833 44.6875 19.375 39.4792 17.5L38.5417 17.1875V16.7708C39.6875 11.0416 38.8542 6.7708 36.25 5.2083C33.6458 3.6458 29.7917 5.10414 25.625 8.74997L25 9.37497L24.7917 9.16664H24.5833C20.3125 5.2083 16.1458 3.85414 13.5417 5.31247C10.9375 6.7708 10.2083 10.8333 11.25 16.1458C11.3596 16.4838 11.4295 16.8333 11.4583 17.1875L10.3125 17.6041C5.20833 19.375 2.1875 22.0833 2.1875 25C2.1875 27.9166 5.52083 30.8333 10.7292 32.7083L11.4583 32.9166C11.3296 33.2854 11.2593 33.672 11.25 34.0625C10.2083 39.2708 11.1458 43.2291 13.5417 44.6875C15.9375 46.1458 20.3125 44.7916 24.4792 41.1458L25.1042 40.625L25.9375 41.4583C28.8542 43.9583 31.7708 45.3125 34.0625 45.3125C34.8708 45.3309 35.6671 45.1137 36.3542 44.6875C38.9583 43.2291 39.8958 38.9583 38.75 33.5416V33.3333C38.705 33.1619 38.6702 32.988 38.6458 32.8125H38.9583C44.4792 30.8333 47.8125 28.0208 47.8125 25ZM44.7917 25C44.7917 26.25 42.5 28.4375 38.0208 29.8958H37.8125C37.2664 28.2202 36.6051 26.5843 35.8333 25C36.5625 23.3333 37.1875 21.6666 37.7083 20.1041L38.5417 20.3125C42.7083 21.7708 44.7917 23.75 44.7917 25ZM27.9167 39.1666L27.0833 38.5416C28.2761 37.2201 29.3891 35.8287 30.4167 34.375L35.7292 33.5416C35.8333 33.75 35.8333 33.9583 35.9375 34.0625C36.3087 35.9492 36.379 37.8829 36.1458 39.7916C35.9995 40.7045 35.5608 41.5452 34.8958 42.1875C33.8542 42.8125 31.0417 41.9791 27.9167 39.1666ZM26.5625 34.5833L25.1042 36.4583L23.4375 34.5833H26.5625ZM12.2917 20C12.8152 21.7174 13.4771 23.3895 14.2708 25C13.4765 26.646 12.8146 28.3528 12.2917 30.1041L11.6667 29.8958C9.84256 29.3201 8.1454 28.4008 6.66667 27.1875C6.28377 26.9455 5.95605 26.6257 5.7048 26.2489C5.45356 25.872 5.2844 25.4465 5.20833 25C5.20833 23.75 7.29167 21.7708 11.25 20.4166L12.2917 20ZM23.4375 15.4166L25 13.6458L26.5625 15.4166H23.4375ZM34.8958 7.81247C36.0417 8.43747 36.6667 11.5625 35.7292 16.1458C35.734 16.2022 35.7272 16.2591 35.7093 16.3128C35.6914 16.3665 35.6627 16.416 35.625 16.4583L30.4167 15.625C29.3891 14.1712 28.2761 12.7799 27.0833 11.4583L27.7083 10.9375C31.0417 8.0208 33.75 7.18747 34.8958 7.81247ZM17.5 18.8541L16.6667 20.2083L15.9375 21.5625C15.625 20.8333 15.4167 20.1041 15.1042 19.2708L17.5 18.8541ZM15.1042 30.7291C15.4167 30 15.625 29.2708 15.9375 28.4375L16.6667 29.7916L17.5 31.1458L15.1042 30.7291ZM32.5 25C31.9699 26.142 31.3788 27.2548 30.7292 28.3333C30.1042 29.4791 29.375 30.5208 28.75 31.5625H21.25C20.5208 30.4166 19.7917 29.375 19.2708 28.3333C18.6161 27.2577 18.0248 26.1447 17.5 25C18.0054 23.8458 18.5974 22.7315 19.2708 21.6666C19.8693 20.5874 20.5301 19.544 21.25 18.5416C23.7457 18.3334 26.2543 18.3334 28.75 18.5416C29.4792 19.5833 30.1042 20.625 30.7292 21.6666C31.4026 22.7315 31.9946 23.8458 32.5 25ZM33.3333 20.2083L32.5 18.8541L34.8958 19.375C34.6639 20.1208 34.3856 20.8514 34.0625 21.5625L33.3333 20.2083ZM32.5 31.1458L33.3333 29.7916L34.0625 28.3333L35 30.7291L32.5 31.1458ZM22.8125 11.3541H22.9167L19.5833 15.5208L14.375 16.3541C14.2708 16.0416 14.2708 15.8333 14.1667 15.5208C13.3333 11.25 13.9583 8.3333 15 7.81247C15.2766 7.63082 15.61 7.55672 15.9375 7.60414C17.3958 7.60414 19.8958 8.6458 22.7083 11.1458L22.8125 11.3541ZM14.1667 34.5833C14.1857 34.2617 14.256 33.9452 14.375 33.6458L19.6875 34.375C20.689 35.8481 21.8034 37.2412 23.0208 38.5416L22.8125 38.75L22.6042 38.9583C21.184 40.2738 19.5211 41.2999 17.7083 41.9791C17.3107 42.1874 16.875 42.3133 16.4275 42.3491C15.98 42.3849 15.5299 42.3299 15.1042 42.1875C13.9583 41.5625 13.3333 38.75 14.1667 34.5833Z" fill="#7572D5"/>
            <path d="M25 20.4167C24.0894 20.396 23.1932 20.6471 22.4259 21.138C21.6586 21.6289 21.0549 22.3372 20.692 23.1727C20.3291 24.0082 20.2233 24.9328 20.3882 25.8286C20.5532 26.7245 20.9812 27.5509 21.6179 28.2023C22.2545 28.8538 23.0709 29.3007 23.9627 29.4862C24.8545 29.6716 25.7813 29.5872 26.6249 29.2435C27.4685 28.8999 28.1905 28.3127 28.6989 27.5569C29.2073 26.8011 29.4789 25.9109 29.4792 25C29.4795 23.8023 29.0109 22.652 28.1738 21.7954C27.3366 20.9388 26.1974 20.4439 25 20.4167Z" fill="#7572D5"/>
        </svg>
    </g>

    <g id="typeS">
        <svg width="40" height="40" viewBox="0 0 40 40" fill="none" xmlns="http://www.w3.org/2000/svg">
            <path d="M0 20V40H40V0H0V20ZM32.235 18.4067C33.2517 18.66 34.025 19.1117 34.7367 19.8483C35.105 20.2417 35.6517 20.9583 35.695 21.1317C35.7083 21.1817 33.9683 22.3483 32.915 23.0033C32.8767 23.0283 32.7233 22.8633 32.5533 22.61C32.0367 21.86 31.4983 21.5367 30.6733 21.48C29.46 21.3967 28.68 22.0317 28.6867 23.0917C28.6756 23.3523 28.7343 23.6112 28.8567 23.8417C29.1233 24.3933 29.62 24.725 31.1733 25.3967C34.0383 26.63 35.2633 27.4417 36.025 28.5967C36.875 29.885 37.0667 31.9433 36.4883 33.4733C35.855 35.1367 34.28 36.2667 32.0633 36.64C31.3783 36.7617 29.7533 36.7433 29.0167 36.61C27.41 36.3233 25.8867 35.53 24.9467 34.4883C24.5783 34.0833 23.86 33.0217 23.905 32.9467C23.9233 32.92 24.0883 32.8183 24.2717 32.7117C24.4517 32.61 25.1233 32.2217 25.7583 31.8533L26.9083 31.1867L27.15 31.5433C27.4867 32.0567 28.2217 32.7617 28.6667 32.9967C29.9433 33.67 31.695 33.575 32.5583 32.8C32.7319 32.6538 32.8694 32.4693 32.9599 32.2612C33.0504 32.053 33.0915 31.8267 33.08 31.6C33.08 31.1367 33.0217 30.9333 32.78 30.5833C32.47 30.14 31.835 29.7667 30.0317 28.9833C27.9683 28.095 27.08 27.5433 26.2667 26.6667C25.759 26.0881 25.3841 25.4055 25.1683 24.6667C25.0167 24.1017 24.9783 22.685 25.0983 22.115C25.5233 20.12 27.0283 18.7317 29.2 18.3183C29.905 18.185 31.5433 18.235 32.235 18.4067ZM22.845 20.0767L22.8583 21.715H17.65V36.5083H13.9667V21.715H8.76333V20.1083C8.76333 19.2183 8.78167 18.475 8.80667 18.4583C8.82667 18.4317 11.995 18.4183 15.835 18.425L22.8267 18.445L22.845 20.0767Z" fill="#7572D5"/>
        </svg>
    </g>

        <g id="styled">
            <svg width="38" height="38" viewBox="0 0 38 38" fill="none" xmlns="http://www.w3.org/2000/svg">
                <path d="M31.2591 0.25L30.9888 1.64963C30.5708 4.30212 30.7221 5.06099 31.8682 6.04539L32.9747 6.95461L31.8286 12.0305C31.1438 15.0588 30.3041 17.5968 29.7707 18.4308C29.313 19.1503 28.7796 20.2099 28.6642 20.7791C28.4732 21.4592 27.8245 22.1429 26.8334 22.7478C25.9576 23.2418 24.2385 24.5663 23.0203 25.6294C22.0472 26.4993 21.3769 27.0326 21.0129 27.2617L19.8235 28.196C19.4415 28.8046 19.2253 29.295 19.1424 29.6672C19.0595 30.0503 19.1063 30.3044 19.2289 30.4905C19.3478 30.6695 19.5532 30.7948 19.8343 30.8736C20.1671 30.951 20.5097 30.9788 20.8507 30.9559C21.6222 30.9035 22.3858 30.7691 23.1284 30.555C23.3807 30.487 23.5789 30.4225 23.7519 30.3653C24.0186 30.0395 24.6349 29.4238 25.7269 28.3535C28.6246 25.5149 29.731 23.9613 28.5885 24.3802C28.1669 24.5305 28.3579 24.1511 29.0823 23.3922C30.6104 21.9138 31.4862 19.6801 33.317 12.6748C34.7659 7.14433 34.7659 7.06558 35.8327 7.06558C36.3336 7.06558 37.75 7.15149 37.75 7.15149V0.25H34.4992H31.2591ZM18.4216 12.0806C17.3692 12.0735 15.1058 13.6664 8.33025 19.1611C8.03832 19.8519 8.01309 20.328 8.14644 20.6359C8.23294 20.8471 8.39152 20.9938 8.61137 21.1012C8.82761 21.2086 9.10873 21.2731 9.41867 21.2981C10.035 21.3518 10.763 21.2552 11.3504 21.1406L11.7469 21.0511C11.8826 20.8704 12.0608 20.7254 12.2659 20.6287C12.6839 20.3996 14.4391 18.8103 16.1943 17.1064C19.2829 13.9993 20.0073 12.5961 18.7495 12.1415C18.6463 12.1007 18.5326 12.08 18.4216 12.0806ZM26.336 14.2391C25.4098 14.2642 23.7411 15.3309 20.8831 17.5968C19.4487 18.753 18.5405 19.3759 18.0539 19.5047L16.1654 20.9867C15.4554 22.2753 15.3509 23.0736 15.5383 23.5139C15.5852 23.6225 15.6533 23.7208 15.7387 23.8031C15.8241 23.8855 15.925 23.9502 16.0357 23.9936C16.311 24.1015 16.6046 24.1562 16.9006 24.1546C17.608 24.1471 18.3112 24.0448 18.991 23.8504C19.3453 23.7559 19.6952 23.6461 20.0398 23.521L20.1443 23.4781L20.3353 23.3779C20.6957 22.9161 21.5246 22.0462 22.5626 21.044C25.8423 17.9011 27.5181 15.6674 27.1758 14.8333C27.0208 14.4288 26.7541 14.2248 26.336 14.2391ZM17.5998 18.1051C17.3331 18.1337 16.7349 18.5919 15.6573 19.5298C14.1003 20.8972 12.4028 21.6847 11.8154 21.3339C11.6788 21.3645 11.5419 21.3932 11.4045 21.4198C10.8062 21.5379 10.0602 21.6346 9.39344 21.5809C9.07929 21.562 8.77137 21.4855 8.48523 21.3554C8.21533 21.2328 7.99994 21.0164 7.87975 20.7468C7.7464 20.4247 7.7464 20.0238 7.89777 19.5119L5.55514 21.4234L0.253605 25.7798V32.8423L17.6251 19.2506C17.6217 19.1018 17.6411 18.9533 17.6827 18.8103C17.8161 18.3306 17.8089 18.0872 17.5998 18.1087V18.1051ZM25.0746 20.3925C24.8115 20.3925 24.3718 20.7612 23.669 21.5021C22.714 22.5152 21.2111 23.496 20.4146 23.6964L20.292 23.7609C20.1613 23.8145 20.0291 23.8646 19.8956 23.9112C19.6794 23.9828 19.3982 24.0687 19.0739 24.1546C18.4252 24.33 17.6179 24.4911 16.897 24.4732C16.5572 24.4728 16.2207 24.4072 15.9059 24.2799C15.6093 24.1585 15.3716 23.9275 15.2428 23.6356C15.0338 23.138 15.1167 22.44 15.5744 21.4485L0.25 33.4366V37.75H6.98234L21.2615 26.6103C21.6327 26.2022 22.1914 25.6438 22.9446 24.9457C24.9629 23.0879 25.4206 22.4472 25.4206 21.4986C25.4206 20.7612 25.3377 20.3889 25.0746 20.3889V20.3925ZM28.4732 27.3727L27.2514 28.5826C26.5667 29.2269 25.3449 30.0216 24.5088 30.3617L24.343 30.4333L24.3322 30.4512L24.2961 30.487C24.2637 30.512 24.2493 30.5156 24.2241 30.5263C23.8903 30.6518 23.5512 30.7629 23.2077 30.8592C22.4441 31.08 21.6586 31.218 20.8651 31.2709C20.4899 31.2948 20.1132 31.2622 19.7478 31.1743C19.4307 31.1049 19.1508 30.9213 18.9622 30.6588C18.7892 30.3939 18.7387 30.0395 18.836 29.6028C18.9134 29.2919 19.0284 28.9914 19.1784 28.7079L7.6563 37.75H22.9807L24.8115 35.6667C27.3271 32.7529 28.4732 30.6695 28.4732 28.8869V27.3727Z" fill="#7572D5"/>
            </svg>
        </g>

        <g id="design">
            <svg width="28" height="42" viewBox="0 0 28 42" fill="none" xmlns="http://www.w3.org/2000/svg">
                <path d="M6.7085 0.166748C3.25673 0.166748 0.458496 2.96498 0.458496 6.41675C0.458496 9.86852 3.25673 12.6667 6.7085 12.6667H21.2918C24.7437 12.6667 27.5418 9.86852 27.5418 6.41675C27.5418 2.96498 24.7437 0.166748 21.2918 0.166748H6.7085Z" fill="#7572D5"/>
                <path d="M21.2915 14.75C17.8396 14.75 15.0415 17.5481 15.0415 21C15.0415 24.4519 17.8396 27.25 21.2915 27.25C24.7434 27.25 27.5415 24.4519 27.5415 21C27.5415 17.5481 24.7434 14.75 21.2915 14.75Z" fill="#7572D5"/>
                <path d="M0.458496 21C0.458496 17.5481 3.25673 14.75 6.7085 14.75H12.9585V27.25H6.7085C3.25673 27.25 0.458496 24.4519 0.458496 21Z" fill="#7572D5"/>
                <path d="M6.7085 29.3333C3.25673 29.3333 0.458496 32.1314 0.458496 35.5833C0.458496 39.0351 3.25673 41.8333 6.7085 41.8333C10.1604 41.8333 12.9585 39.0351 12.9585 35.5833V29.3333H6.7085Z" fill="#7572D5"/>
            </svg>
        </g>



    <g id="waveSvs">
        <svg width="52" height="5" viewBox="0 0 52 5" fill="none" xmlns="http://www.w3.org/2000/svg">
            <path d="M0 4C2.27042 4 2.92958 1 5.2 1C7.47042 1 8.12958 4 10.4 4C12.6704 4 13.3296 1 15.6 1C17.8704 1 18.5296 4 20.8 4C23.0704 4 23.7296 1 26 1C28.2704 1 28.9296 4 31.2 4C33.4704 4 34.1296 1 36.4 1C38.6704 1 39.3296 4 41.6 4C43.8704 4 44.5296 1 46.8 1C49.0704 1 49.7296 4 52 4"
                  stroke="#111111"/>
        </svg>
    </g>
    <g id="forLogoSvg">
        <g clip-path="url(#clip0_20_1493)">
            <path d="M50 24.8894C49.9972 23.7294 49.5339 22.6181 48.712 21.7996C47.89 20.9811 46.7766 20.5226 45.6167 20.5248C44.7516 20.5258 43.9063 20.7831 43.1875 21.2644L45.0542 23.129C45.4475 22.9996 45.873 23.0065 46.262 23.1487C46.6509 23.2909 46.9806 23.56 47.1977 23.9126C47.4149 24.2652 47.5069 24.6807 47.4589 25.092C47.4108 25.5033 47.2256 25.8865 46.933 26.1795C46.6405 26.4726 46.2577 26.6585 45.8465 26.7073C45.4352 26.756 45.0196 26.6648 44.6666 26.4482C44.3136 26.2317 44.0439 25.9025 43.901 25.5138C43.7582 25.1252 43.7505 24.6997 43.8792 24.3061L42.0146 22.4415C41.3736 23.4013 41.1387 24.5759 41.3613 25.7084C41.5838 26.841 42.2457 27.8393 43.2022 28.4853C44.1587 29.1312 45.3321 29.3722 46.4657 29.1555C47.5994 28.9388 48.6012 28.2821 49.2521 27.329C49.7383 26.609 49.9987 25.7603 50 24.8915L50 24.8894ZM37.2646 23.1519C38.7407 23.1549 40.1776 22.6774 41.3583 21.7915L38.9375 19.3623C38.2641 19.731 37.4875 19.8662 36.7291 19.7467C35.9707 19.6272 35.2732 19.2598 34.7458 18.7019L31.5271 20.0186C32.146 20.978 32.9952 21.7672 33.9974 22.3142C34.9996 22.8611 36.1228 23.1505 37.2646 23.1519ZM33.7937 16.3811L33.7937 16.3186C33.8239 15.4172 34.2028 14.5627 34.8507 13.9353C35.4987 13.3079 36.3649 12.9566 37.2668 12.9555C38.1687 12.9545 39.0358 13.3037 39.6852 13.9295C40.3346 14.5553 40.7156 15.4089 40.7479 16.3102C40.7488 16.9914 40.5496 17.6579 40.175 18.2269L42.575 20.6248C43.6987 19.2157 44.2201 17.4197 44.0259 15.6279C43.8316 13.8361 42.9373 12.1936 41.5377 11.058C40.1381 9.92247 38.3466 9.38584 36.5532 9.56496C34.7598 9.74408 33.1098 10.6245 31.9625 12.0144C31.3249 12.7999 30.8697 13.7172 30.6298 14.7001C30.3898 15.6829 30.3711 16.7068 30.575 17.6977L33.7917 16.3811L33.7937 16.3811ZM31.0104 24.9811C31.0104 23.4644 30.7896 21.9561 30.3542 20.5019L25.6625 22.4227C26.3159 25.006 25.9587 27.7412 24.6637 30.07C23.3687 32.3988 21.2337 34.1454 18.6945 34.9533C16.1553 35.7613 13.4035 35.5695 11.001 34.4173C8.59837 33.265 6.72621 31.2391 5.76672 28.7533C4.80722 26.2674 4.83276 23.509 5.83813 21.0414C6.84349 18.5737 8.75285 16.5829 11.1764 15.4753C13.5999 14.3677 16.3548 14.227 18.8785 15.0818C21.4023 15.9366 23.5046 17.7225 24.7562 20.0748L29.4312 18.179C27.6226 14.4866 24.4213 11.6639 20.5316 10.3316C16.6418 8.99936 12.3822 9.26669 8.68958 11.0748C6.86104 11.9704 5.22472 13.2173 3.8781 14.7445C2.53147 16.2717 1.49884 18.0491 0.839153 19.9753C0.17947 21.9016 -0.0943534 23.9389 0.0333359 25.971C0.161021 28.003 0.687713 29.99 1.58333 31.8186L1.58333 31.8206C2.47852 33.6495 3.72521 35.2842 5.25221 36.6312C6.7792 37.9783 8.55659 39.0114 10.4829 39.6714C12.4091 40.3315 14.4466 40.6057 16.4788 40.4783C18.5111 40.3509 20.4983 39.8245 22.3271 38.929C24.9337 37.653 27.1298 35.671 28.6657 33.2086C30.2015 30.7461 31.0153 27.902 31.0146 24.9998L31.0146 24.9831L31.0104 24.9811Z"
                  fill="#5C5C5D"/>
        </g>
        <defs>
            <clipPath id="clip0_20_1493">
                <rect width="50" height="50" fill="white" transform="translate(50) rotate(90)"/>
            </clipPath>
        </defs>
    </g>

    <g id="htmlSvg">
        <svg xmlns="http://www.w3.org/2000/svg" width="50" height="50" viewBox="0 0 50 50" fill="none">
            <path d="M9.22187 42.5016L5.71094 3.125H44.2891L40.7734 42.4953L24.9766 46.875L9.22187 42.5016Z" fill="#E44F26"/>
            <path d="M25 43.528L37.7656 39.989L40.7687 6.34521H25V43.528Z" fill="#F1662A"/>
            <path d="M25 20.9483H18.6094L18.1688 16.003H25V11.1733H12.8906L13.0063 12.4702L14.1922 25.778H25V20.9483ZM25 33.4905L24.9781 33.4968L19.6 32.0452L19.2563 28.1937H14.4078L15.0844 35.7749L24.9781 38.5218L25 38.5155V33.4905Z" fill="#EBEBEB"/>
            <path d="M24.9829 20.9483V25.778H30.9298L30.3704 32.0421L24.9829 33.4952V38.5202L34.8845 35.7749L34.9563 34.9593L36.0907 22.2452L36.2095 20.9483H24.9829ZM24.9829 11.1733V16.003H36.6485L36.7454 14.9187L36.9657 12.4702L37.0813 11.1733H24.9829Z" fill="white"/>
        </svg>
    </g>
    <g id="cssSvg">
        vscode-icons:file-type-css
        width: 50px;
        height: 49.583px;
        flex-shrink: 0;
        <svg xmlns="http://www.w3.org/2000/svg" width="50" height="50" viewBox="0 0 50 50" fill="none">
            <path d="M9.22178 42.1475L5.7124 3.09912H44.2874L40.7733 42.1413L24.9765 46.4845L9.22178 42.1475Z" fill="#1572B6"/>
            <path d="M25 43.1654L37.7656 39.6559L40.7687 6.29248H25V43.1654Z" fill="#33A9DC"/>
            <path d="M25 20.4391H31.3906L31.8312 15.535H25V10.7456H37.1094L36.9938 12.0301L35.8078 25.2286H25V20.4391Z" fill="white"/>
            <path d="M25.0297 32.8768L25.0078 32.883L19.6297 31.442L19.2859 27.6226H14.4375L15.1141 35.1422L25.0062 37.8662L25.0297 37.86V32.8768Z" fill="#EBEBEB"/>
            <path d="M30.9796 25.0254L30.3984 31.4387L25.0125 32.8797V37.8628L34.9125 35.1419L34.9859 34.3331L35.825 25.0254H30.9796Z" fill="white"/>
            <path d="M25.0171 10.7456V15.535H13.3515L13.2546 14.4582L13.0343 12.0301L12.9187 10.7456H25.0171ZM25 20.4391V25.2286H19.689L19.5921 24.1517L19.3734 21.7237L19.2578 20.4391H25Z" fill="#EBEBEB"/>
        </svg>
    </g>
    <g id="jsSvg">
        <svg xmlns="http://www.w3.org/2000/svg" width="46" height="50" viewBox="0 0 46 50" fill="none">
            <path d="M2.84082 3.125H42.6135V46.875H2.84082V3.125Z" fill="#F5DE19"/>
            <path d="M29.5582 37.3047C29.8971 38.0619 30.4236 38.6984 31.077 39.1407C31.7305 39.583 32.4842 39.8132 33.2514 39.8048C34.7997 39.8048 35.7898 38.9532 35.7898 37.7735C35.7898 36.3672 34.7727 35.8641 33.0682 35.0438L32.1335 34.6032C29.4347 33.3391 27.6449 31.7563 27.6449 28.4094C27.6449 25.3266 29.7756 22.9782 33.1179 22.9782C34.1999 22.8922 35.2809 23.1586 36.2261 23.7441C37.1714 24.3295 37.939 25.2082 38.4332 26.2704L35.5114 28.3251C35.321 27.7984 34.9897 27.3478 34.5612 27.033C34.1327 26.7182 33.6274 26.5542 33.1122 26.5626C32.8874 26.5378 32.6604 26.5648 32.4457 26.6419C32.2309 26.719 32.0331 26.8444 31.8649 27.0102C31.6967 27.1761 31.5617 27.3786 31.4685 27.605C31.3754 27.8314 31.3261 28.0766 31.3239 28.3251C31.3239 29.5579 32.0185 30.0579 33.6222 30.8251L34.5568 31.2657C37.733 32.7641 39.5284 34.2907 39.5284 37.7235C39.5284 41.4251 36.8849 43.4532 33.3352 43.4532C31.9521 43.5501 30.5731 43.2047 29.3645 42.4586C28.1559 41.7125 27.1695 40.5976 26.5241 39.2485L29.5582 37.3047ZM16.3551 37.661C16.9418 38.8063 17.4759 39.7751 18.7599 39.7751C19.9872 39.7751 20.7628 39.2469 20.7628 37.1922V23.2126H24.5V37.2469C24.5 41.5032 22.2273 43.4407 18.919 43.4407C17.7496 43.511 16.5883 43.1904 15.5876 42.5211C14.587 41.8518 13.7938 40.8651 13.3125 39.6907L16.3551 37.661Z" fill="black"/>
        </svg>
    </g>
    <g id="reactSvg">
        <svg xmlns="http://www.w3.org/2000/svg" width="50" height="45" viewBox="0 0 50 45" fill="none">
            <g clip-path="url(#clip0_20_763)">
                <path d="M41.1088 14.4702C40.5767 14.287 40.0401 14.1173 39.4995 13.9612C39.5903 13.5887 39.6739 13.2208 39.7481 12.8594C40.9664 6.92402 40.17 2.14235 37.4497 0.568003C34.8415 -0.941274 30.576 0.63249 26.2682 4.39529C25.8436 4.7668 25.4285 5.14901 25.0232 5.54156C24.7518 5.28052 24.4757 5.02456 24.1949 4.77379C19.6801 0.750488 15.1547 -0.945194 12.4373 0.633666C9.83146 2.14765 9.05984 6.64274 10.1566 12.2678C10.2657 12.8249 10.389 13.3792 10.5261 13.93C9.88556 14.1127 9.26744 14.3071 8.67589 14.5141C3.38258 16.3664 0.00219727 19.2691 0.00219727 22.28C0.00219727 25.3897 3.63119 28.5088 9.14441 30.4001C9.59138 30.5528 10.0421 30.6943 10.4961 30.8245C10.3486 31.4177 10.2177 32.015 10.1035 32.6156C9.05789 38.1431 9.87443 42.532 12.4732 44.0363C15.1574 45.5899 19.6625 43.9932 24.049 40.1446C24.4047 39.8317 24.7526 39.5099 25.0923 39.1796C25.5312 39.6047 25.9819 40.0174 26.4438 40.4172C30.693 44.0869 34.8895 45.5687 37.4858 44.0603C40.1674 42.5022 41.039 37.7873 39.9075 32.0511C39.8183 31.6017 39.7184 31.1546 39.6077 30.71C39.9241 30.6159 40.2346 30.5191 40.5373 30.4184C46.2689 28.5126 49.9981 25.4313 49.9981 22.28C49.9981 19.2581 46.5085 16.3358 41.1088 14.4702ZM39.8657 28.3838C39.5923 28.4745 39.3118 28.5621 39.0259 28.6474C38.3932 26.6369 37.5393 24.4992 36.4943 22.2904C37.4915 20.1343 38.3125 18.0239 38.9275 16.0265C39.439 16.1751 39.9352 16.3317 40.4137 16.4969C45.0403 18.0956 47.8623 20.4589 47.8623 22.28C47.8623 24.2197 44.8145 26.7379 39.8657 28.3838ZM37.8123 32.4674C38.3127 35.0038 38.384 37.2971 38.0526 39.09C37.7549 40.701 37.1562 41.775 36.4156 42.2052C34.8401 43.1206 31.4707 41.9308 27.8368 38.7923C27.4072 38.4205 26.988 38.0369 26.5797 37.6417C27.9886 36.0954 29.3964 34.2978 30.7705 32.3012C33.1875 32.086 35.4709 31.734 37.5417 31.2536C37.6414 31.656 37.7317 32.0607 37.8123 32.4674ZM17.0469 42.047C15.5076 42.5925 14.2815 42.6082 13.5403 42.1793C11.9633 41.2665 11.3077 37.7425 12.202 33.0155C12.3083 32.4569 12.43 31.9014 12.567 31.3496C14.6149 31.8043 16.8817 32.1313 19.3043 32.3285C20.6878 34.2821 22.1363 36.0778 23.5961 37.6501C23.2859 37.9514 22.9683 38.245 22.6437 38.5306C20.7038 40.2324 18.76 41.4398 17.0469 42.047ZM9.83537 28.3718C7.39748 27.5354 5.38417 26.4486 4.00421 25.2625C2.76408 24.1968 2.13815 23.1385 2.13815 22.28C2.13815 20.4528 4.85219 18.1223 9.37896 16.5383C9.92833 16.3462 10.5033 16.1649 11.0999 15.9948C11.7256 18.0372 12.5463 20.1727 13.5366 22.3322C12.5334 24.5236 11.701 26.6932 11.0692 28.7597C10.6549 28.6406 10.2434 28.5112 9.83537 28.3718ZM12.2527 11.856C11.3132 7.03672 11.9371 3.40133 13.5075 2.4889C15.18 1.51708 18.8786 2.90268 22.7769 6.37676C23.0311 6.60381 23.2812 6.83547 23.527 7.07161C22.0744 8.63714 20.6392 10.4195 19.268 12.3615C16.9166 12.5803 14.6658 12.9315 12.5965 13.4021C12.469 12.8898 12.3544 12.3743 12.2527 11.8562V11.856ZM33.8187 17.2008C33.33 16.3535 32.823 15.5168 32.2983 14.6913C33.8935 14.8938 35.4219 15.1625 36.8572 15.491C36.4263 16.8772 35.8893 18.3263 35.2571 19.8121C34.795 18.9321 34.3155 18.0615 33.8187 17.2008ZM25.0241 8.60363C26.0092 9.67482 26.9959 10.8707 27.9663 12.1683C25.9977 12.075 24.0258 12.0746 22.0572 12.1671C23.0286 10.8815 24.0236 9.68717 25.0241 8.60363ZM16.1731 17.2155C15.6826 18.0693 15.212 18.9345 14.7617 19.8103C14.1399 18.3298 13.6077 16.8741 13.1732 15.4683C14.5996 15.148 16.1208 14.8861 17.7058 14.6874C17.1753 15.5179 16.6642 16.3608 16.1731 17.2153V17.2155ZM17.7513 30.0252C16.1138 29.8417 14.5697 29.5934 13.1437 29.2817C13.5851 27.8508 14.129 26.3641 14.7643 24.8519C15.2163 25.7283 15.6889 26.594 16.1815 27.4482C16.6881 28.3263 17.2127 29.1864 17.7513 30.0252ZM25.0831 36.1073C24.0707 35.0113 23.061 33.7985 22.075 32.4943C23.0323 32.5319 24.0082 32.5511 25.0001 32.5511C26.0192 32.5511 27.0265 32.5282 28.018 32.4839C27.0445 33.8117 26.0616 35.0262 25.0831 36.1073ZM35.2772 24.7746C35.9455 26.3035 36.5087 27.7824 36.956 29.1888C35.5065 29.5208 33.9414 29.7882 32.2923 29.9867C32.8207 29.146 33.3324 28.2947 33.8271 27.4335C34.3301 26.5581 34.8136 25.6716 35.2772 24.7746ZM31.9771 26.3625C31.2198 27.6829 30.4199 28.9782 29.5787 30.2465C28.0549 30.3548 26.5277 30.4086 25.0001 30.4078C23.4442 30.4078 21.9308 30.3592 20.4735 30.2643C19.6104 28.999 18.7952 27.7014 18.0298 26.3743H18.03C17.2682 25.0542 16.5566 23.7055 15.8968 22.3312C16.5549 20.9565 17.2643 19.6072 18.0236 18.2861L18.0234 18.2863C18.7823 16.9649 19.5909 15.6728 20.4476 14.413C21.9344 14.3001 23.459 14.2413 24.9999 14.2413H25.0001C26.548 14.2413 28.0747 14.3007 29.5611 14.4143C30.4091 15.6723 31.2126 16.9599 31.9701 18.2748C32.7318 19.593 33.4506 20.9357 34.1253 22.3008C33.4575 23.6799 32.741 25.0346 31.9771 26.3625ZM36.383 2.425C38.0571 3.39407 38.7082 7.30192 37.6563 12.4266C37.5891 12.7535 37.5137 13.0866 37.4317 13.4243C35.3573 12.9437 33.1049 12.5864 30.7467 12.3643C29.373 10.4008 27.9495 8.61578 26.5205 7.07044C26.895 6.70811 27.2784 6.35519 27.6704 6.01198C31.3615 2.78821 34.8112 1.51532 36.383 2.425ZM25.0001 17.7992C27.4657 17.7992 29.4646 19.8054 29.4646 22.28C29.4646 24.7546 27.4657 26.7608 25.0001 26.7608C22.5345 26.7608 20.5357 24.7546 20.5357 22.28C20.5357 19.8054 22.5345 17.7992 25.0001 17.7992Z" fill="#00D8FF"/>
            </g>
            <defs>
                <clipPath id="clip0_20_763">
                    <rect width="50" height="44.6903" fill="white"/>
                </clipPath>
            </defs>
        </svg>
    </g>
    <g id="tsSvg">
        <svg xmlns="http://www.w3.org/2000/svg" width="47" height="50" viewBox="0 0 47 50" fill="none">
            <g clip-path="url(#clip0_20_1548)">
                <path d="M8.28149 18.3594H44.6916V47.1367H8.28149V18.3594Z" fill="white"/>
                <path d="M0.547852 24.9648V49.3789H46.2112V0.550781H0.547852V24.9648ZM37.3452 23.0117C38.4389 23.2831 39.4329 23.8948 40.2019 24.7695C40.6252 25.2408 40.9933 25.7655 41.2978 26.332C41.2978 26.3945 39.3252 27.8203 38.1233 28.6172C38.0795 28.6484 37.9041 28.4453 37.7105 28.1367C37.4911 27.7319 37.1794 27.3931 36.8044 27.152C36.4294 26.9109 36.0034 26.7753 35.5662 26.7578C34.1816 26.6562 33.2903 27.4336 33.2976 28.7109C33.2861 29.029 33.3542 29.3445 33.4949 29.625C33.7981 30.3008 34.3643 30.7031 36.1397 31.5234C39.4092 33.0273 40.8083 34.0195 41.6777 35.4297C42.6494 36.9922 42.865 39.5156 42.2074 41.3828C41.4768 43.4141 39.6868 44.793 37.1552 45.25C35.999 45.3916 34.8307 45.3785 33.6775 45.2109C31.91 44.8994 30.2819 43.992 29.0308 42.6211C28.6107 42.125 27.7924 40.832 27.8436 40.7383C27.9769 40.6324 28.1173 40.5371 28.2637 40.4531L29.955 39.4531L31.2665 38.6406L31.5405 39.0742C32.0029 39.7815 32.5913 40.3842 33.272 40.8477C34.7333 41.668 36.7278 41.5547 37.7142 40.6055C38.0453 40.2576 38.2519 39.7966 38.298 39.3027C38.344 38.8088 38.2266 38.3132 37.9662 37.9023C37.6009 37.3594 36.8703 36.9023 34.8282 35.9492C32.472 34.8633 31.4565 34.1914 30.5286 33.1211C29.9493 32.4148 29.5216 31.5815 29.2756 30.6797C29.092 29.6494 29.0649 28.5942 29.1952 27.5547C29.6811 25.1211 31.387 23.4219 33.8784 22.918C35.0322 22.7653 36.201 22.7996 37.3452 23.0195V23.0117ZM26.6271 25.0586V27.0586H20.6982V45.1172H16.4935V27.0547H10.5499V25.1016C10.5314 24.428 10.5461 23.7539 10.5938 23.082C10.623 23.0469 14.2469 23.0469 18.6305 23.0469H26.6052L26.6271 25.0586Z" fill="#007ACC"/>
            </g>
            <defs>
                <clipPath id="clip0_20_1548">
                    <rect width="46.7593" height="50" fill="white"/>
                </clipPath>
            </defs>
        </svg>
    </g>
    <g id="figmaSvg">
        <svg xmlns="http://www.w3.org/2000/svg" width="34" height="50" viewBox="0 0 34 50" fill="none">
            <g clip-path="url(#clip0_56_489)">
                <path d="M8.33675 50.0002C12.9368 50.0002 16.6701 46.2668 16.6701 41.6668V33.3335H8.33675C3.73675 33.3335 0.00341797 37.0668 0.00341797 41.6668C0.00341797 46.2668 3.73675 50.0002 8.33675 50.0002Z" fill="#0ACF83"/>
                <path d="M0.00341797 24.9998C0.00341797 20.3998 3.73675 16.6665 8.33675 16.6665H16.6701V33.3332H8.33675C3.73675 33.3332 0.00341797 29.5998 0.00341797 24.9998Z" fill="#A259FF"/>
                <path d="M0.00341797 8.33333C0.00341797 3.73333 3.73675 0 8.33675 0H16.6701V16.6667H8.33675C3.73675 16.6667 0.00341797 12.9333 0.00341797 8.33333Z" fill="#F24E1E"/>
                <path d="M16.6699 0H25.0033C29.6033 0 33.3366 3.73333 33.3366 8.33333C33.3366 12.9333 29.6033 16.6667 25.0033 16.6667H16.6699V0Z" fill="#FF7262"/>
                <path d="M33.3366 24.9998C33.3366 29.5998 29.6033 33.3332 25.0033 33.3332C20.4033 33.3332 16.6699 29.5998 16.6699 24.9998C16.6699 20.3998 20.4033 16.6665 25.0033 16.6665C29.6033 16.6665 33.3366 20.3998 33.3366 24.9998Z" fill="#1ABCFE"/>
            </g>
            <defs>
                <clipPath id="clip0_56_489">
                    <rect width="33.34" height="50" fill="white"/>
                </clipPath>
            </defs>
        </svg>
    </g>
</svg>
