<svg width="86" height="45" viewBox="0 0 86 45" fill="none" xmlns="http://www.w3.org/2000/svg">
<path d="M12.852 36.54C10.824 36.54 9.03 36.126 7.47 35.298C5.922 34.458 4.71 33.288 3.834 31.788C2.958 30.276 2.52 28.5 2.52 26.46V10.098L6.336 10.08V26.262C6.336 27.366 6.522 28.338 6.894 29.178C7.266 30.018 7.764 30.72 8.388 31.284C9.012 31.848 9.708 32.274 10.476 32.562C11.256 32.85 12.048 32.994 12.852 32.994C13.668 32.994 14.46 32.85 15.228 32.562C16.008 32.262 16.71 31.83 17.334 31.266C17.958 30.702 18.45 30 18.81 29.16C19.182 28.32 19.368 27.354 19.368 26.262V10.08H23.184V26.46C23.184 28.488 22.746 30.258 21.87 31.77C20.994 33.282 19.776 34.458 18.216 35.298C16.668 36.126 14.88 36.54 12.852 36.54ZM37.1112 36.54C35.0832 36.54 33.2892 36.126 31.7292 35.298C30.1812 34.458 28.9692 33.288 28.0932 31.788C27.2172 30.276 26.7792 28.5 26.7792 26.46V10.098L30.5952 10.08V26.262C30.5952 27.366 30.7812 28.338 31.1532 29.178C31.5252 30.018 32.0232 30.72 32.6472 31.284C33.2712 31.848 33.9672 32.274 34.7352 32.562C35.5152 32.85 36.3072 32.994 37.1112 32.994C37.9272 32.994 38.7192 32.85 39.4872 32.562C40.2672 32.262 40.9692 31.83 41.5932 31.266C42.2172 30.702 42.7092 30 43.0692 29.16C43.4412 28.32 43.6272 27.354 43.6272 26.262V10.08H47.4432V26.46C47.4432 28.488 47.0052 30.258 46.1292 31.77C45.2532 33.282 44.0352 34.458 42.4752 35.298C40.9272 36.126 39.1392 36.54 37.1112 36.54ZM51.0384 36V10.08H54.8004V22.176L65.6544 10.08H70.3344L58.8684 22.734L71.1804 36H66.3564L54.8004 23.616V36H51.0384Z" fill="white"/>
<circle cx="83" cy="33" r="3" fill="#FFCF45"/>
</svg>
