<svg width="53" height="53" viewBox="0 0 53 53" fill="none" xmlns="http://www.w3.org/2000/svg">
<path fill-rule="evenodd" clip-rule="evenodd" d="M26.6308 2.92199C26.5438 2.91337 26.4563 2.91337 26.3693 2.92199L14.0027 4.15866C13.817 4.17698 13.6373 4.23428 13.4754 4.32683C13.3134 4.41938 13.1728 4.54509 13.0628 4.69573L2.47338 19.1683C2.29329 19.4064 2.1994 19.6987 2.2071 19.9972C2.21481 20.2957 2.32364 20.5827 2.51578 20.8113L25.4754 48.7175C25.5997 48.8691 25.756 48.9913 25.9332 49.0751C26.1104 49.159 26.304 49.2025 26.5001 49.2025C26.6961 49.2025 26.8897 49.159 27.0669 49.0751C27.2441 48.9913 27.4004 48.8691 27.5247 48.7175L50.4843 20.8113C50.6815 20.5753 50.7902 20.2779 50.7917 19.9703V19.8855C50.7762 19.6255 50.684 19.3759 50.5267 19.1683L39.9373 4.69926C39.8273 4.54862 39.6867 4.42292 39.5247 4.33037C39.3628 4.23782 39.1831 4.18051 38.9974 4.16219L26.6308 2.92199ZM38.6017 18.6383V18.557L38.5911 18.6383H38.6017ZM38.6371 18.2849H46.5976L39.7465 8.92513L38.6335 18.2849H38.6371ZM37.3509 6.65673L28.4222 5.76279L35.9482 18.4121L37.3509 6.65673ZM24.5779 5.76279L15.6492 6.65673L17.0484 18.4086L24.5779 5.76279ZM13.2501 8.92513L6.40245 18.2849H14.3666L13.2501 8.92513ZM6.33885 21.2883L23.8818 42.6084L14.9249 21.4367C14.9035 21.3886 14.8858 21.339 14.8719 21.2883H6.33885ZM18.2003 21.2883L26.5001 42.7815L34.8034 21.2883H18.2003ZM38.1283 21.2883C38.1143 21.339 38.0966 21.3886 38.0752 21.4367L29.1183 42.6084L46.6613 21.2883H38.1247H38.1283ZM26.5001 7.71319L33.0014 18.6383H19.9987L26.5001 7.71319Z" fill="#D7A700"/>
</svg>
