<svg width="89" height="88" viewBox="0 0 89 88" fill="none" xmlns="http://www.w3.org/2000/svg">
<g clip-path="url(#clip0_73_192)">
<path fill-rule="evenodd" clip-rule="evenodd" d="M44.0229 0C19.7003 0 0 19.69 0 44C0 63.47 12.6016 79.915 30.1007 85.745C32.3018 86.13 33.1272 84.81 33.1272 83.655C33.1272 82.61 33.0722 79.145 33.0722 75.46C22.0115 77.495 19.15 72.765 18.2695 70.29C17.7743 69.025 15.6281 65.12 13.7572 64.075C12.2164 63.25 10.0152 61.215 13.7021 61.16C17.1689 61.105 19.6452 64.35 20.4707 65.67C24.4327 72.325 30.761 70.455 33.2923 69.3C33.6775 66.44 34.8331 64.515 36.0988 63.415C26.3037 62.315 16.0684 58.52 16.0684 41.69C16.0684 36.905 17.7743 32.945 20.5807 29.865C20.1405 28.765 18.5997 24.255 21.0209 18.205C21.0209 18.205 24.7079 17.05 33.1272 22.715C36.6491 21.725 40.391 21.23 44.133 21.23C47.8749 21.23 51.6169 21.725 55.1387 22.715C63.5581 16.995 67.245 18.205 67.245 18.205C69.6663 24.255 68.1255 28.765 67.6852 29.865C70.4917 32.945 72.1976 36.85 72.1976 41.69C72.1976 58.575 61.9072 62.315 52.1121 63.415C53.708 64.79 55.0837 67.43 55.0837 71.555C55.0837 77.44 55.0286 82.17 55.0286 83.655C55.0286 84.81 55.8541 86.185 58.0552 85.745C66.7944 82.796 74.3884 77.1822 79.7683 69.6937C85.1482 62.2052 88.0432 53.219 88.0458 44C88.0458 19.69 68.3456 0 44.0229 0Z" fill="black"/>
</g>
<defs>
<clipPath id="clip0_73_192">
<rect width="88.0458" height="88" fill="white"/>
</clipPath>
</defs>
</svg>
