<svg width="114" height="101" viewBox="0 0 114 101" fill="none" xmlns="http://www.w3.org/2000/svg">
<g clip-path="url(#clip0_73_194)">
<path d="M93.3056 32.7027C92.1025 32.2886 90.8892 31.905 89.6669 31.5522C89.8722 30.7106 90.0612 29.8791 90.229 29.0622C92.9837 15.6483 91.1829 4.84172 85.0318 1.28369C79.1343 -2.12728 69.4893 1.42943 59.7485 9.93336C58.7885 10.773 57.8498 11.6368 56.9333 12.5239C56.3198 11.934 55.6954 11.3555 55.0605 10.7888C44.8516 1.6961 34.6188 -2.13614 28.4744 1.43209C22.5822 4.85368 20.8374 15.0126 23.3174 27.7253C23.5641 28.9844 23.8427 30.2369 24.1529 31.4818C22.7045 31.8947 21.3068 32.3341 19.9692 32.8019C8.00009 36.9881 0.356445 43.5482 0.356445 50.3528C0.356445 57.3808 8.56225 64.4299 21.0286 68.7043C22.0393 69.0494 23.0584 69.3692 24.0849 69.6633C23.7515 71.0041 23.4555 72.354 23.1973 73.7113C20.833 86.2034 22.6793 96.1222 28.5557 99.5221C34.625 103.033 44.8118 99.4247 54.7306 90.7267C55.5349 90.0196 56.3215 89.2924 57.0896 88.5459C58.0821 89.5065 59.1012 90.4392 60.1455 91.3429C69.7538 99.6364 79.2429 102.985 85.1135 99.5762C91.1771 96.0549 93.148 85.3994 90.5894 72.4355C90.3878 71.4199 90.1618 70.4093 89.9115 69.4046C90.6269 69.192 91.329 68.9732 92.0135 68.7455C104.974 64.4384 113.406 57.4747 113.406 50.3528C113.406 43.5234 105.515 36.919 93.3056 32.7027ZM90.4949 64.1473C89.8766 64.3524 89.2425 64.5504 88.596 64.7431C87.1652 60.1995 85.2345 55.3683 82.8715 50.3763C85.1263 45.5035 86.9828 40.7339 88.3734 36.2199C89.53 36.5557 90.6521 36.9097 91.734 37.2831C102.195 40.8961 108.577 46.2371 108.577 50.3528C108.577 54.7366 101.685 60.4276 90.4949 64.1473ZM85.8519 73.3764C86.9833 79.1086 87.1444 84.2915 86.3951 88.3435C85.7221 91.9843 84.3681 94.4114 82.6936 95.3838C79.1312 97.4525 71.5123 94.7636 63.2954 87.6706C62.3241 86.8304 61.3762 85.9633 60.4528 85.0703C63.6385 81.5756 66.822 77.513 69.9291 73.0008C75.3944 72.5144 80.5575 71.7188 85.2398 70.633C85.4654 71.5425 85.6695 72.4572 85.8519 73.3764ZM38.8975 95.0263C35.4168 96.2591 32.6444 96.2946 30.9686 95.3253C27.4027 93.2623 25.9202 85.298 27.9423 74.615C28.1827 73.3526 28.4579 72.0972 28.7676 70.8501C33.3982 71.8778 38.5239 72.6167 44.0019 73.0623C47.1302 77.4776 50.4056 81.5357 53.7065 85.0893C53.005 85.7702 52.2869 86.4337 51.5528 87.0792C47.1664 90.9252 42.7712 93.6539 38.8975 95.0263ZM22.591 64.1203C17.0785 62.2301 12.526 59.7738 9.4057 57.0933C6.60155 54.6848 5.18622 52.2931 5.18622 50.3528C5.18622 46.2234 11.3231 40.9563 21.559 37.3766C22.8012 36.9424 24.1013 36.5327 25.4503 36.1482C26.8652 40.764 28.7208 45.5903 30.9602 50.4707C28.6917 55.4232 26.8096 60.3266 25.381 64.997C24.444 64.7277 23.5137 64.4354 22.591 64.1203ZM28.0571 26.7946C25.9326 15.903 27.3435 7.687 30.8944 5.62491C34.6762 3.42861 43.0392 6.56005 51.854 14.4115C52.4288 14.9246 52.9943 15.4482 53.5502 15.9818C50.2656 19.5199 47.0203 23.548 43.9198 27.9371C38.6029 28.4314 33.5135 29.2252 28.8343 30.2888C28.546 29.131 28.2869 27.966 28.0571 26.795V26.7946ZM76.8216 38.8738C75.7164 36.9588 74.5702 35.0679 73.3838 33.2023C76.9907 33.6599 80.4467 34.2673 83.692 35.0097C82.7178 38.1425 81.5035 41.4175 80.074 44.7753C79.0291 42.7866 77.9448 40.8191 76.8216 38.8738ZM56.9355 19.4442C59.1629 21.8651 61.3939 24.5677 63.5882 27.5003C59.1369 27.2894 54.6781 27.2885 50.2267 27.4976C52.4232 24.5921 54.6732 21.893 56.9355 19.4442ZM36.9218 38.9071C35.8126 40.8366 34.7485 42.7919 33.7303 44.7713C32.3243 41.4254 31.1209 38.1354 30.1384 34.9583C33.3638 34.2345 36.8034 33.6427 40.3874 33.1935C39.1878 35.0704 38.0323 36.9753 36.9218 38.9066V38.9071ZM40.4903 67.8569C36.7875 67.4422 33.2962 66.881 30.0717 66.1766C31.0697 62.9429 32.2995 59.5828 33.7361 56.1652C34.7583 58.1461 35.8268 60.1025 36.9408 62.033C38.0863 64.0175 39.2724 65.9613 40.4903 67.8569ZM57.0689 81.6026C54.7796 79.1255 52.4965 76.3847 50.2669 73.4371C52.4316 73.5222 54.6383 73.5656 56.8812 73.5656C59.1855 73.5656 61.4632 73.5137 63.7052 73.4136C61.5039 76.4144 59.2813 79.1591 57.0689 81.6026ZM80.1195 55.9907C81.6306 59.4459 82.9042 62.7883 83.9155 65.9667C80.6379 66.7171 77.0989 67.3213 73.3701 67.77C74.5649 65.8699 75.722 63.9461 76.8406 61.9998C77.9779 60.0214 79.0711 58.0179 80.1195 55.9907ZM72.6573 59.5793C70.9449 62.5634 69.1362 65.4908 67.234 68.357C63.7885 68.6018 60.3354 68.7234 56.8812 68.7216C53.363 68.7216 49.941 68.6117 46.6458 68.3973C44.694 65.5378 42.8508 62.6052 41.1201 59.6059H41.1205C39.3979 56.6224 37.7889 53.5744 36.2969 50.4685C37.7851 47.3618 39.3892 44.3124 41.1059 41.3266L41.1055 41.3271C42.8215 38.3406 44.65 35.4206 46.5871 32.5733C49.949 32.3181 53.3965 32.1853 56.8807 32.1853H56.8812C60.3813 32.1853 63.8333 32.3195 67.1943 32.5764C69.1118 35.4194 70.9286 38.3294 72.6414 41.3009C74.3639 44.2801 75.9892 47.3146 77.5149 50.3998C76.0049 53.5165 74.3847 56.5783 72.6573 59.5793ZM82.6198 5.4805C86.4052 7.67061 87.8775 16.5023 85.499 28.0841C85.3471 28.823 85.1767 29.5756 84.9912 30.3389C80.3005 29.2527 75.2076 28.4452 69.8753 27.9433C66.769 23.5059 63.5502 19.4717 60.319 15.9792C61.1659 15.1603 62.0328 14.3627 62.9192 13.5871C71.2654 6.30135 79.0658 3.42462 82.6198 5.4805ZM56.8812 40.2263C62.4564 40.2263 66.9762 44.7602 66.9762 50.3528C66.9762 55.9455 62.4564 60.4794 56.8812 60.4794C51.306 60.4794 46.7862 55.9455 46.7862 50.3528C46.7862 44.7602 51.306 40.2263 56.8812 40.2263Z" fill="#00D8FF"/>
</g>
<defs>
<clipPath id="clip0_73_194">
<rect width="113.059" height="101" fill="white" transform="translate(0.351562)"/>
</clipPath>
</defs>
</svg>
