<svg width="106" height="100" viewBox="0 0 106 100" fill="none" xmlns="http://www.w3.org/2000/svg">
<path d="M73.1998 69.5627C77.0736 69.1619 80.0124 65.8242 79.8787 61.8184C79.7455 57.8131 76.4056 54.6086 72.3982 54.6086H72.1312C67.9897 54.7422 64.784 58.2135 64.9176 62.3525C65.0513 64.3553 65.8526 66.091 67.0548 67.2926C62.5131 76.2385 55.5669 82.7807 45.1475 88.2549C38.0676 91.9934 30.7208 93.3287 23.3739 92.3943C17.3626 91.593 12.6872 88.923 9.74795 84.5164C5.47359 77.9742 5.07298 70.8975 8.67977 63.8213C11.218 58.7475 15.225 55.009 17.7632 53.1398C17.2289 51.4041 16.4272 48.4668 16.0266 46.3307C-3.34288 60.35 -1.33897 79.3094 4.53868 88.2549C8.94671 94.9311 17.8969 99.0701 27.7819 99.0701C30.4534 99.0701 33.1249 98.8029 35.7968 98.1357C52.8954 94.7975 65.853 84.65 73.1998 69.5627ZM96.7104 53.0066C86.558 41.1234 71.5969 34.5811 54.4983 34.5811H52.3611C51.1588 32.1779 48.6206 30.5754 45.8155 30.5754H45.5481C41.4075 30.709 38.2017 34.1803 38.335 38.3197C38.4686 42.325 41.8081 45.5295 45.8155 45.5295H46.0824C49.0213 45.3959 51.5595 43.5266 52.6281 40.9898H55.0326C65.185 40.9898 74.8027 43.927 83.4859 49.6684C90.1648 54.0746 94.9739 59.816 97.6453 66.7586C99.9162 72.3664 99.7825 77.8406 97.378 82.5139C93.6379 89.5902 87.3597 93.4623 79.0775 93.4623C73.7341 93.4623 68.6581 91.8598 65.9862 90.6582C64.517 91.9934 61.8451 94.1295 59.9749 95.4652C65.7193 98.1352 71.5969 99.6041 77.2072 99.6041C90.0311 99.6041 99.5156 92.5275 103.122 85.4512C106.996 77.707 106.729 64.3553 96.7104 53.0066ZM28.8505 71.832C28.9842 75.8377 32.3236 79.0418 36.331 79.0418H36.5984C40.7395 78.9086 43.9453 75.4369 43.8116 71.2979C43.6783 67.2922 40.3385 64.0881 36.331 64.0881H36.0641C35.7968 64.0881 35.3957 64.0881 35.1292 64.2213C29.6522 55.1422 27.3813 45.2623 28.183 34.5807C28.7168 26.5697 31.3887 19.6266 36.0641 13.8852C39.9378 8.94508 47.4184 6.5418 52.4948 6.40861C66.6542 6.14139 72.6651 23.7656 73.0661 30.8422C74.8027 31.2426 77.7415 32.1775 79.7454 32.8451C78.1422 11.2156 64.784 0 51.9605 0C39.9378 0 28.8505 8.67869 24.4421 21.4963C18.2975 38.5865 22.3049 55.009 29.7854 67.9602C29.1179 68.8947 28.7168 70.3635 28.8505 71.8324V71.832Z" fill="#764ABC"/>
</svg>
