<svg width="121" height="120" viewBox="0 0 121 120" fill="none" xmlns="http://www.w3.org/2000/svg">
<path d="M7.73828 7.5H112.793V112.5H7.73828V7.5Z" fill="#F5DE19"/>
<path d="M78.3086 89.531C79.2036 91.3482 80.5943 92.8757 82.3203 93.9372C84.0462 94.9988 86.0372 95.5513 88.0636 95.531C92.1533 95.531 94.7684 93.4873 94.7684 90.656C94.7684 87.281 92.082 86.0735 87.5796 84.1048L85.1108 83.0473C77.9821 80.0135 73.2547 76.2148 73.2547 68.1823C73.2547 60.7835 78.8826 55.1473 87.7109 55.1473C90.5688 54.941 93.4242 55.5803 95.921 56.9854C98.4177 58.3905 100.445 60.4992 101.751 63.0485L94.033 67.9798C93.5303 66.7157 92.655 65.6343 91.5233 64.8788C90.3915 64.1234 89.0567 63.7296 87.6959 63.7498C87.1022 63.6904 86.5027 63.7552 85.9354 63.9402C85.3682 64.1252 84.8457 64.4263 84.4013 64.8242C83.9569 65.2222 83.6003 65.7083 83.3543 66.2516C83.1082 66.7949 82.9781 67.3834 82.9722 67.9798C82.9722 70.9385 84.8069 72.1385 89.0429 73.9798L91.5117 75.0373C99.901 78.6335 104.644 82.2973 104.644 90.536C104.644 99.4198 97.6611 104.287 88.285 104.287C84.6317 104.52 80.9892 103.691 77.7968 101.9C74.6045 100.11 71.9989 97.4339 70.2944 94.196L78.3086 89.531ZM43.4341 90.386C44.9837 93.1348 46.3944 95.4598 49.7862 95.4598C53.0279 95.4598 55.0765 94.1923 55.0765 89.261V55.7098H64.9478V89.3923C64.9478 99.6073 58.9447 104.257 50.2064 104.257C47.1176 104.426 44.05 103.657 41.4069 102.05C38.7638 100.444 36.6688 98.0759 35.3975 95.2573L43.4341 90.386Z" fill="black"/>
</svg>
