<svg width="121" height="119" viewBox="0 0 121 119" fill="none" xmlns="http://www.w3.org/2000/svg">
<path d="M22.2609 101.154L13.834 7.4375H106.462L98.0241 101.139L60.0918 111.562L22.2609 101.154Z" fill="#1572B6"/>
<path d="M60.1484 103.597L90.8019 95.1742L98.0131 15.1021H60.1484V103.597Z" fill="#33A9DC"/>
<path d="M60.1484 49.054H75.4939L76.552 37.2842H60.1484V25.7896H89.2261L88.9484 28.8724L86.1007 60.5487H60.1484V49.054Z" fill="white"/>
<path d="M60.2196 78.9042L60.1671 78.9191L47.2529 75.4607L46.4275 66.2939H34.7852L36.4098 84.341L60.1634 90.8786L60.2196 90.8637V78.9042Z" fill="#EBEBEB"/>
<path d="M74.5074 60.0615L73.1117 75.4534L60.1787 78.9119V90.8714L83.9511 84.3412L84.1274 82.4001L86.1422 60.0615H74.5074Z" fill="white"/>
<path d="M60.19 25.7896V37.2842H32.178L31.9453 34.6997L31.4163 28.8724L31.1387 25.7896H60.19ZM60.1488 49.054V60.5487H47.3959L47.1633 57.9642L46.638 52.1369L46.3603 49.054H60.1488Z" fill="#EBEBEB"/>
</svg>
