<svg width="121" height="120" viewBox="0 0 121 120" fill="none" xmlns="http://www.w3.org/2000/svg">
<path d="M22.1445 102.004L13.7139 7.5H106.35L97.9077 101.989L59.9754 112.5L22.1445 102.004Z" fill="#E44F26"/>
<path d="M60.0312 104.467L90.6847 95.9735L97.896 15.2285H60.0312V104.467Z" fill="#F1662A"/>
<path d="M60.0308 50.2764H44.6853L43.6272 38.4077H60.0308V26.8164H30.9531L31.2308 29.9289L34.0785 61.8677H60.0308V50.2764ZM60.0308 80.3777L59.9782 80.3927L47.064 76.9089L46.2386 67.6652H34.5963L36.2209 85.8602L59.9782 92.4527L60.0308 92.4377V80.3777Z" fill="#EBEBEB"/>
<path d="M59.9902 50.2764V61.8677H74.2702L72.927 76.9014L59.9902 80.3889V92.4489L83.7664 85.8602L83.9389 83.9027L86.6629 53.3889L86.948 50.2764H59.9902ZM59.9902 26.8164V38.4077H88.0023L88.2349 35.8052L88.764 29.9289L89.0416 26.8164H59.9902Z" fill="white"/>
</svg>
